<svg id="Layer_1" data-name="Layer 1" xmlns="http://www.w3.org/2000/svg" viewBox="0 0 82.07 68.13"><defs><style>.cls-1,.cls-2{fill:#fff;}.cls-2{fill-rule:evenodd;}.cls-3{fill:none;}</style></defs><title>basilica</title><path class="cls-1" d="M112.79,569V568.9H111.3v-0.19a0.19,0.19,0,0,0-.19-0.19h-3.44a0.19,0.19,0,0,0-.19.19v0.12c-18.92-.8-20.83-2.65-21-3.22a0.94,0.94,0,0,1,.63-0.72,2.74,2.74,0,0,1,.4-0.15l0.41-.12c1.27-.37,3.64-1.05,3.78-2.31,0.07-.68-0.5-1.34-1.75-2-0.86-.46-1.3-0.92-1.24-1.28,0.17-1,3.36-1.83,5.34-2.14L94,556.3c-0.92.14-5.53,0.94-5.82,2.61-0.11.65,0.39,1.27,1.53,1.89,1,0.53,1.49,1,1.45,1.45-0.09.87-2.47,1.56-3.36,1.82l-0.43.13a3.18,3.18,0,0,0-.47.18,1.33,1.33,0,0,0-.93,1.36c0.19,0.88,1.72,1.57,4.82,2.16a126.16,126.16,0,0,0,16.7,1.51v0.18a0.19,0.19,0,0,0,.19.19h3.44a0.19,0.19,0,0,0,.19-0.19v-0.23h1.49v-0.08l0.24-.11C113.12,569.09,112.9,569,112.79,569Z" transform="translate(-68.22 -513.77)"/><path class="cls-2" d="M94.32,557.19l-1.42.27a0.17,0.17,0,0,1-.11-0.17l-0.16-.87a0.17,0.17,0,0,1,0-.2l1.42-.27a0.17,0.17,0,0,1,.11.17L94.36,557A0.17,0.17,0,0,1,94.32,557.19Z" transform="translate(-68.22 -513.77)"/><path class="cls-3" d="M106.65,549.72h-3c-4.79,0-6.77,2.4-6.77,6.86s2.35,6.3,6.77,6.3h3a1,1,0,0,0,1-1V550.68A1,1,0,0,0,106.65,549.72Z" transform="translate(-68.22 -513.77)"/><path class="cls-3" d="M111.86,546.61h1.4c5.26,0,7.61-1.6,7.61-6.2,0-3.85-1.69-5.26-6-5.26h-3a1,1,0,0,0-1,1v9.55A1,1,0,0,0,111.86,546.61Z" transform="translate(-68.22 -513.77)"/><path class="cls-3" d="M106.65,535.15h-3c-4.32,0-6,1.41-6,5.26,0,4.61,2.35,6.2,7.61,6.2h1.4a1,1,0,0,0,1-1v-9.55A1,1,0,0,0,106.65,535.15Z" transform="translate(-68.22 -513.77)"/><path class="cls-3" d="M111.86,546.61h1.4c5.26,0,7.61-1.6,7.61-6.2,0-3.85-1.69-5.26-6-5.26h-3a1,1,0,0,0-1,1v9.55A1,1,0,0,0,111.86,546.61Z" transform="translate(-68.22 -513.77)"/><path class="cls-3" d="M106.65,549.72h-3c-4.79,0-6.77,2.4-6.77,6.86s2.35,6.3,6.77,6.3h3a1,1,0,0,0,1-1V550.68A1,1,0,0,0,106.65,549.72Z" transform="translate(-68.22 -513.77)"/><path class="cls-3" d="M106.65,535.15h-3c-4.32,0-6,1.41-6,5.26,0,4.61,2.35,6.2,7.61,6.2h1.4a1,1,0,0,0,1-1v-9.55A1,1,0,0,0,106.65,535.15Z" transform="translate(-68.22 -513.77)"/><path class="cls-1" d="M123.09,550.13a1.67,1.67,0,0,0-2.24-.31,1.71,1.71,0,0,0-.35,2.24h0a9,9,0,0,1,1.13,4.52c0,4.37-2.35,6.3-6.77,6.3h-3a1,1,0,0,1-1-1V550.67a1,1,0,0,1,1-1h0.28a24.88,24.88,0,0,0,4.39-.48,12.82,12.82,0,0,0,4.38-1.88c0.32-.23.66-0.48,1-0.71s0.4-.34.58-0.51a8,8,0,0,0,2.08-5.72c0-5-2.91-8.36-8-8.36H102c-5.08,0-8,3.38-8,8.36,0,3.38,1.5,6.44,5.17,7.52V548c-4.09,1.08-5.92,4.32-5.92,8.55,0,6.3,3.48,9.4,10.9,9.4h10.26c7.42,0,10.9-3.1,10.9-9.4A9.65,9.65,0,0,0,123.09,550.13Zm-12.19-14a1,1,0,0,1,1-1h3c4.32,0,6,1.41,6,5.26,0,4.61-2.35,6.2-7.61,6.2h-1.4a1,1,0,0,1-1-1V536.1Zm-3.29,25.82a1,1,0,0,1-1,1h-3c-4.42,0-6.77-1.93-6.77-6.3s2-6.86,6.77-6.86h3a1,1,0,0,1,1,1v11.24Zm0-16.26a1,1,0,0,1-1,1h-1.4c-5.26,0-7.61-1.6-7.61-6.2,0-3.85,1.69-5.26,6-5.26h3a1,1,0,0,1,1,1v9.55Z" transform="translate(-68.22 -513.77)"/><path class="cls-1" d="M112.58,518.82l-0.19,0a0.41,0.41,0,0,1-.5-0.41l0-.61a0.41,0.41,0,0,1,.56-0.35h0a0.42,0.42,0,0,0,.55-0.26,1.59,1.59,0,0,0,.07-0.43,0.41,0.41,0,0,0-.48-0.4l-0.13,0A0.41,0.41,0,0,1,112,516l0.11-1.3a0.4,0.4,0,0,0-.41-0.43,2.81,2.81,0,0,1-1.35-.31,1,1,0,0,0-1-.13,0.41,0.41,0,0,1-.35,0,1,1,0,0,0-1,.13,2.81,2.81,0,0,1-1.35.31,0.4,0.4,0,0,0-.41.43l0.11,1.3a0.41,0.41,0,0,1-.48.43l-0.13,0a0.41,0.41,0,0,0-.48.4,1.59,1.59,0,0,0,.07.43,0.42,0.42,0,0,0,.55.26h0a0.41,0.41,0,0,1,.56.35l0,0.61a0.41,0.41,0,0,1-.5.41l-0.19,0a0.41,0.41,0,0,0-.49.32,1.26,1.26,0,0,0,0,.54,0.41,0.41,0,0,0,.51.27l0.13,0a0.41,0.41,0,0,1,.53.38v0.76a0.41,0.41,0,0,1-.48.39l-0.16,0a0.41,0.41,0,0,0-.48.36,1.49,1.49,0,0,0,0,.26,0.41,0.41,0,0,0,.51.34h0a0.41,0.41,0,0,1,.51.41l0,0.47a0.39,0.39,0,0,0,.1.28,4.42,4.42,0,0,1,1,2.73v7.48a0.4,0.4,0,0,0,.41.4h2.51a0.4,0.4,0,0,0,.41-0.4v-7.48a4.42,4.42,0,0,1,1-2.73,0.39,0.39,0,0,0,.1-0.28l0-.47a0.41,0.41,0,0,1,.51-0.41h0A0.41,0.41,0,0,0,113,522a1.48,1.48,0,0,0,0-.26,0.41,0.41,0,0,0-.48-0.36l-0.16,0a0.41,0.41,0,0,1-.48-0.39V520.3a0.41,0.41,0,0,1,.53-0.38l0.13,0a0.41,0.41,0,0,0,.51-0.27,1.25,1.25,0,0,0,0-.54A0.41,0.41,0,0,0,112.58,518.82Zm-1.6-.58h-1.42v3.92H109v-3.92h-1.42v-0.59H109v-1.58h0.6v1.58H111v0.59Z" transform="translate(-68.22 -513.77)"/><path class="cls-1" d="M70,581.79H68.22v-4.24h1.66a1,1,0,0,1,1,1.06,0.88,0.88,0,0,1-.51.88h0a1.08,1.08,0,0,1,.89,1.06A1.2,1.2,0,0,1,70,581.79Zm-1-3.57v1h0.56a0.5,0.5,0,0,0,.48-0.55,0.48,0.48,0,0,0-.46-0.49H69Zm0,1.7v1.22h0.78a0.57,0.57,0,0,0,.6-0.61,0.59,0.59,0,0,0-.6-0.6H69Z" transform="translate(-68.22 -513.77)"/><path class="cls-1" d="M72.36,581.79L74,577.55h0.88l1.62,4.24H75.64l-0.33-.86H73.55l-0.34.86H72.36Zm2.1-3.31-0.67,1.79h1.3Z" transform="translate(-68.22 -513.77)"/><path class="cls-1" d="M77.77,578.72a1.26,1.26,0,0,1,1.31-1.24,1.52,1.52,0,0,1,1.18.5l-0.45.53a1,1,0,0,0-.7-0.32,0.51,0.51,0,0,0-.13,1l0.44,0.18a1.31,1.31,0,0,1,1,1.26A1.36,1.36,0,0,1,79,581.91a1.63,1.63,0,0,1-1.34-.59l0.49-.53a1.08,1.08,0,0,0,.83.39,0.59,0.59,0,0,0,.62-0.56,0.59,0.59,0,0,0-.44-0.54l-0.4-.15A1.17,1.17,0,0,1,77.77,578.72Z" transform="translate(-68.22 -513.77)"/><path class="cls-1" d="M82.75,581.79H81.94v-4.24h0.81v4.24Z" transform="translate(-68.22 -513.77)"/><path class="cls-1" d="M84.59,581.79v-4.24H85.4v3.51h1.32v0.72H84.59Z" transform="translate(-68.22 -513.77)"/><path class="cls-1" d="M89,581.79H88.24v-4.24H89v4.24Z" transform="translate(-68.22 -513.77)"/><path class="cls-1" d="M93.85,577.73v0.91a1.57,1.57,0,0,0-1.06-.4,1.36,1.36,0,0,0-1.31,1.41,1.39,1.39,0,0,0,1.31,1.47,1.8,1.8,0,0,0,1.08-.4v0.87a2.18,2.18,0,0,1-1.13.3,2.13,2.13,0,0,1-2.09-2.18,2.2,2.2,0,0,1,2.14-2.25A2.78,2.78,0,0,1,93.85,577.73Z" transform="translate(-68.22 -513.77)"/><path class="cls-1" d="M95.1,581.79l1.67-4.24h0.88l1.62,4.24H98.38l-0.33-.86H96.28l-0.34.86H95.1Zm2.1-3.31-0.68,1.79h1.3Z" transform="translate(-68.22 -513.77)"/><path class="cls-1" d="M105.29,581.79h-1.83v-4.24h1.66a1,1,0,0,1,1,1.06,0.88,0.88,0,0,1-.51.88h0a1.08,1.08,0,0,1,.89,1.06A1.2,1.2,0,0,1,105.29,581.79Zm-1-3.57v1h0.56a0.5,0.5,0,0,0,.48-0.55,0.48,0.48,0,0,0-.46-0.49h-0.58Zm0,1.7v1.22H105a0.57,0.57,0,0,0,.6-0.61,0.59,0.59,0,0,0-.6-0.6h-0.79Z" transform="translate(-68.22 -513.77)"/><path class="cls-1" d="M108,581.79v-4.24h0.81v3.51h1.32v0.72H108Z" transform="translate(-68.22 -513.77)"/><path class="cls-1" d="M111.44,579.67a2.17,2.17,0,0,1,2.19-2.21A2.2,2.2,0,1,1,111.44,579.67Zm0.8,0a1.37,1.37,0,0,0,1.38,1.42,1.39,1.39,0,0,0,1.39-1.42A1.39,1.39,0,1,0,112.24,579.67Z" transform="translate(-68.22 -513.77)"/><path class="cls-1" d="M120.4,577.73v0.91a1.57,1.57,0,0,0-1.06-.4,1.36,1.36,0,0,0-1.31,1.41,1.39,1.39,0,0,0,1.31,1.47,1.8,1.8,0,0,0,1.08-.4v0.87a2.18,2.18,0,0,1-1.13.3,2.13,2.13,0,0,1-2.09-2.18,2.2,2.2,0,0,1,2.14-2.25A2.78,2.78,0,0,1,120.4,577.73Z" transform="translate(-68.22 -513.77)"/><path class="cls-1" d="M122.88,579.84v1.95h-0.81v-4.24h0.81v1.88l1.57-1.88h1l-1.79,2,1.78,2.2h-1.08Z" transform="translate(-68.22 -513.77)"/><path class="cls-1" d="M130.43,580.12v1.67h-0.81v-4.24h1.46a1.29,1.29,0,0,1,0,2.57h-0.66Zm0-1.95v1.31h0.49a0.59,0.59,0,0,0,.63-0.65,0.6,0.6,0,0,0-.67-0.65h-0.45Z" transform="translate(-68.22 -513.77)"/><path class="cls-1" d="M133.47,581.79l1.67-4.24H136l1.62,4.24h-0.89l-0.33-.86h-1.77l-0.34.86h-0.85Zm2.1-3.31-0.67,1.79h1.3Z" transform="translate(-68.22 -513.77)"/><path class="cls-1" d="M139.86,580v1.81h-0.79v-4.24h1.46a1.23,1.23,0,0,1,1.27,1.27,1.19,1.19,0,0,1-1,1.17l1.34,1.79h-1Zm0-1.77v1.29h0.49a0.61,0.61,0,0,0,.61-0.67,0.59,0.59,0,0,0-.68-0.62h-0.43Z" transform="translate(-68.22 -513.77)"/><path class="cls-1" d="M144.81,578.29v3.5H144v-3.5h-0.87v-0.74h2.55v0.74h-0.87Z" transform="translate(-68.22 -513.77)"/><path class="cls-1" d="M146.72,577.55h1l0.84,1.47,0.85-1.47h0.93l-1.37,2.22v2h-0.81v-2Z" transform="translate(-68.22 -513.77)"/><path class="cls-1" d="M104.49,573.5v0.34a0.58,0.58,0,0,0-.39-0.15,0.5,0.5,0,0,0-.48.52,0.52,0.52,0,0,0,.48.55,0.67,0.67,0,0,0,.4-0.15v0.32a0.81,0.81,0,0,1-.42.11,0.79,0.79,0,0,1-.77-0.81,0.82,0.82,0,0,1,.79-0.83A1,1,0,0,1,104.49,573.5Z" transform="translate(-68.22 -513.77)"/><path class="cls-1" d="M105.49,575h-0.3v-1.57h0.3V575Z" transform="translate(-68.22 -513.77)"/><path class="cls-1" d="M106.72,573.71V575h-0.3v-1.3H106.1v-0.27H107v0.27h-0.32Z" transform="translate(-68.22 -513.77)"/><path class="cls-1" d="M108,575h-0.3v-1.57H108V575Z" transform="translate(-68.22 -513.77)"/><path class="cls-1" d="M108.73,575v-1.57h0.85v0.26H109v0.4h0.54v0.25H109v0.41h0.55V575h-0.85Z" transform="translate(-68.22 -513.77)"/><path class="cls-1" d="M110.23,573.87a0.47,0.47,0,0,1,.48-0.46,0.57,0.57,0,0,1,.44.18l-0.17.2a0.36,0.36,0,0,0-.26-0.12,0.19,0.19,0,0,0,0,.37l0.16,0.07a0.49,0.49,0,0,1,.36.47,0.51,0.51,0,0,1-.53.48,0.61,0.61,0,0,1-.5-0.22l0.18-.2a0.4,0.4,0,0,0,.31.14,0.22,0.22,0,0,0,.23-0.21,0.22,0.22,0,0,0-.16-0.2l-0.15-.06A0.44,0.44,0,0,1,110.23,573.87Z" transform="translate(-68.22 -513.77)"/><path class="cls-1" d="M113.52,573.55a1.33,1.33,0,0,1-.29.75l-0.47.7h-0.51l0.64-.86a0.74,0.74,0,0,1-.36.1,0.7,0.7,0,0,1-.69-0.71,0.81,0.81,0,0,1,.84-0.83A0.79,0.79,0,0,1,113.52,573.55Zm-0.41,0a0.43,0.43,0,0,0-.43-0.43A0.43,0.43,0,1,0,113.11,573.5Z" transform="translate(-68.22 -513.77)"/><path class="cls-1" d="M114.56,575.08l-0.37-.21,1.07-1.73h-1v-0.37h1.66Z" transform="translate(-68.22 -513.77)"/></svg>