<svg id="Layer_1" data-name="Layer 1" xmlns="http://www.w3.org/2000/svg" viewBox="0 0 96.7 53.07"><defs><style>.cls-1,.cls-2{fill:#fff;}.cls-1{fill-rule:evenodd;}</style></defs><title>chs</title><path class="cls-1" d="M265.06,540.35c-11.44,5.08-17.91,11.48-16.09,17.84,2.82,9.88,24.28,13.84,49.26,9.65s40.91-12.8,40.1-23.34c-0.3-3.91-3.29-8.08-9.25-10.16,0,0-.15-0.06-0.13-0.14a0.14,0.14,0,0,1,.17-0.07c7.75,2.25,10.77,5.94,11.79,10.42,2.56,11.22-11,24.32-42.19,29.55s-50.44-.83-53.88-12.87c-2-7.17,5.55-15.26,20-21.25,0,0,.29-0.1.36,0.07A0.26,0.26,0,0,1,265.06,540.35Z" transform="translate(-244.53 -522.91)"/><path class="cls-2" d="M270.28,522.91a26.83,26.83,0,0,1,4.33.48c3.89,0.71,3.93.91,3.93,5,0,0.43,0,.57-0.31.57-1.37,0-2-4.58-7.86-4.58-5.56,0-10.43,5.68-10.43,14.6,0,6.58,3.1,13.26,10.08,13.26a7.5,7.5,0,0,0,6.62-3.34c1-1.38,1.41-2.24,1.85-2.24a0.55,0.55,0,0,1,.53.38,10.64,10.64,0,0,1-.84,4.44c-0.27.72-3.84,2.2-7.86,2.2-8.25,0-15.67-5.53-15.67-15C254.65,530.83,259.64,522.91,270.28,522.91Z" transform="translate(-244.53 -522.91)"/><path class="cls-2" d="M288.74,535.75c0,1.2.19,1.58,1.2,1.58h10.55c2.54,0,2.83-.09,2.83-0.67v-9.1c0-1.77,0-2-2.49-2.44-0.67-.09-1.24-0.19-1.24-0.72,0-.81.72-0.81,1.39-0.81,1.53,0,2.87.19,4.55,0.19s3.64-.19,4.84-0.19c0.48,0,1.39,0,1.39.67s-0.72.67-2.78,0.86c-0.86,0-1.53.62-1.53,2v22.65c0,1.34.81,1.77,2.1,1.82s2.16,0.09,2.16.86-0.86.67-1.39,0.67-1.82-.19-5.36-0.19c-3.78,0-4.79.19-5.32,0.19a0.77,0.77,0,0,1-1-.62c0-.72,1.1-0.86,2.15-0.91,2-.14,2.49-0.82,2.49-3.88v-7.52c0-1.05-.34-1.15-2.35-1.2h-8.2c-3.45,0-4,.29-4,1.15v9.63c0,1.2,1.05,1.49,2.82,1.82,0.53,0.09,1.58.19,1.58,0.91,0,0.53-.67.62-1.05,0.62-1,0-2.44-.19-5.08-0.19-4.36,0-5.31.19-5.74,0.19s-1.25,0-1.25-.53c0-.77,1.25-0.82,2.11-1,1.34-.29,2.49-0.48,2.49-2.11v-22c0-1.87-.19-1.91-2.82-2.35-0.57-.09-1.15-0.19-1.15-0.91,0-.53.53-0.62,1.05-0.62,1.44,0,2.83.19,4.26,0.19,1.77,0,3.54-.19,5.32-0.19,1.1,0,1.39.14,1.39,0.67,0,0.81-1.15.77-2.2,0.86a1.73,1.73,0,0,0-1.72,2v8.62Z" transform="translate(-244.53 -522.91)"/><path class="cls-2" d="M329.07,530.19a0.39,0.39,0,0,1-.43.38c-1.63,0,0-6-6.51-6-3.73,0-5.22,2.11-5.22,4.45,0,6.9,14.37,6,14.37,15.85,0,6.18-4.45,8.91-10.24,8.91a35.2,35.2,0,0,1-4.65-.72c-3-.62-3.49-1.48-3.49-4.41,0-1.29.14-4.17,1.1-4.17,1.25,0,.19,1.39,1.63,4a6.69,6.69,0,0,0,6.13,3.64c4.55,0,6.37-2.78,6.37-5.17,0-7.28-14.36-6.8-14.36-16,0-4,3-8,9-8a13.63,13.63,0,0,1,2.59.24c3.69,0.72,3.69,1.25,3.69,3.07v4Z" transform="translate(-244.53 -522.91)"/><path class="cls-2" d="M331.29,524.93h0a1.52,1.52,0,1,1,3,0h0A1.52,1.52,0,1,1,331.29,524.93Zm2.86,0h0a1.34,1.34,0,1,0-2.68,0h0a1.33,1.33,0,0,0,1.34,1.35A1.35,1.35,0,0,0,334.15,524.92Zm-2-.83h0.77a0.56,0.56,0,0,1,.67.54,0.51,0.51,0,0,1-.33.5l0.38,0.56h-0.52l-0.32-.48H332.6v0.48h-0.45v-1.6Zm0.74,0.77a0.21,0.21,0,0,0,.24-0.19,0.2,0.2,0,0,0-.24-0.19H332.6v0.38h0.29Z" transform="translate(-244.53 -522.91)"/></svg>