<svg id="Layer_1" data-name="Layer 1" xmlns="http://www.w3.org/2000/svg" viewBox="0 0 146.76 18.65"><defs><style>.cls-1{fill:#fff;}</style></defs><title>ergotron</title><path class="cls-1" d="M466.1,543.38h-5.27c-3.57,0-7.26,4.15-8.21,9.26-0.58,3.1-.07,5.9,1.4,7.67a4.44,4.44,0,0,0,3.45,1.7h5.27c3.58,0,7.26-4.16,8.21-9.25,0.59-3.11.08-5.92-1.39-7.68A4.48,4.48,0,0,0,466.1,543.38Zm2.47,9.26c-0.85,4.58-3.75,6.71-5.46,6.71h-5.26a2.65,2.65,0,0,1-2-1c-0.58-.7-1.47-2.37-0.88-5.56,0.9-4.75,4-6.71,5.44-6.71h5.27a2.64,2.64,0,0,1,1.94,1C468.25,547.77,469.16,549.45,468.57,552.63Z" transform="translate(-399.39 -543.36)"/><path class="cls-1" d="M503.56,548.78a5.2,5.2,0,0,0-.74-4.37,2.77,2.77,0,0,0-2.18-1H470.83L470.34,546h7.07l-3,16h2.4l3-16h8.29l-3,16h2.47l3-16h9.69a0.7,0.7,0,0,1,.56.29,2.86,2.86,0,0,1,.29,2.32c-0.33,1.76-1.26,2.71-2,2.71h-8.41L490.26,554h6.67a2.29,2.29,0,0,1,1.82.66c0.86,1,.62,3.44,0,6.94l-0.07.39h2.47l0-.26c0.78-4.14.61-6.85-.5-8.28A6.72,6.72,0,0,0,503.56,548.78Z" transform="translate(-399.39 -543.36)"/><path class="cls-1" d="M520.1,545.08a4.44,4.44,0,0,0-3.46-1.7h-5.28c-3.56,0-7.25,4.15-8.2,9.26-0.58,3.09-.07,5.9,1.41,7.67A4.43,4.43,0,0,0,508,562h5.26c3.58,0,7.26-4.16,8.21-9.25C522.09,549.64,521.57,546.83,520.1,545.08Zm-1,7.55c-0.85,4.58-3.75,6.71-5.44,6.71h-5.28a2.67,2.67,0,0,1-2-1c-1-1.21-1.32-3.19-.88-5.56,0.9-4.75,4-6.71,5.46-6.71h5.26a2.59,2.59,0,0,1,1.93,1C518.8,547.77,519.71,549.45,519.11,552.63Z" transform="translate(-399.39 -543.36)"/><path class="cls-1" d="M538.42,544.78a4.23,4.23,0,0,0-3.39-1.4H523.66L520.18,562h2.47l3-16h9a2.12,2.12,0,0,1,1.63.76,2.46,2.46,0,0,1,.48,2.06L534.32,562h2.48l2.42-13A5,5,0,0,0,538.42,544.78Z" transform="translate(-399.39 -543.36)"/><path class="cls-1" d="M442,554H449l-1,5.33h-7.74a2.67,2.67,0,0,1-2-1c-0.57-.7-1.46-2.37-0.86-5.56,0.87-4.75,4-6.71,5.43-6.71h10.05l0.48-2.66H443.2c-3.58,0-7.26,4.15-8.22,9.26-0.58,3.11-.07,5.91,1.4,7.68a4.47,4.47,0,0,0,3.46,1.69h10l2-10.64h-9.36Z" transform="translate(-399.39 -543.36)"/><path class="cls-1" d="M435.23,548.78a5.21,5.21,0,0,0-.74-4.37,2.77,2.77,0,0,0-2.18-1H419.37L415.89,562h2.47l3-16H432a0.68,0.68,0,0,1,.56.29,2.91,2.91,0,0,1,.3,2.32c-0.33,1.76-1.27,2.71-2,2.71H421.5L421,554h6.7a2.7,2.7,0,0,1,2.24.91c0.94,1.11,1.08,3.37.46,6.69l-0.09.39h2.47l0.06-.26c0.77-4.08.59-6.85-.51-8.28A6.69,6.69,0,0,0,435.23,548.78Z" transform="translate(-399.39 -543.36)"/><path class="cls-1" d="M403.27,558.17a5.33,5.33,0,0,1-1-4.16h13.69l0.5-2.65H402.74c0.8-3,3.28-5.33,5.68-5.33h9l0.49-2.67H408.8c-3.92,0-7.77,3.48-8.85,8l-0.47,2.26,0,0.39h0a7.74,7.74,0,0,0,1.57,6,5.69,5.69,0,0,0,4.41,2h9l0.48-2.66h-9.12A3.2,3.2,0,0,1,403.27,558.17Z" transform="translate(-399.39 -543.36)"/><path class="cls-1" d="M542.37,547.92h0.52v-1.16h0.41a1.25,1.25,0,0,1,.58.1,0.74,0.74,0,0,1,.28.68v0.39h0.49l0,0a0.35,0.35,0,0,1,0-.15c0-.07,0-0.15,0-0.22V547.3a0.86,0.86,0,0,0-.16-0.46,0.74,0.74,0,0,0-.51-0.29,1.1,1.1,0,0,0,.43-0.14,0.64,0.64,0,0,0,.28-0.58,0.73,0.73,0,0,0-.46-0.75,2.18,2.18,0,0,0-.8-0.11h-1v2.95Zm1.48-1.59a1.31,1.31,0,0,1-.49.07h-0.47v-1.07h0.44a1.35,1.35,0,0,1,.63.11,0.53,0.53,0,0,1-.11.89m1.5-1.76a2.68,2.68,0,0,0-4.58,1.89,2.68,2.68,0,0,0,2.68,2.69,2.7,2.7,0,0,0,2.69-2.69,2.54,2.54,0,0,0-.79-1.89m-0.26.26a2.24,2.24,0,0,1,.67,1.63,2.27,2.27,0,0,1-.67,1.64,2.31,2.31,0,0,1-3.27,0,2.25,2.25,0,0,1-.67-1.64,2.31,2.31,0,0,1,3.94-1.63" transform="translate(-399.39 -543.36)"/></svg>