<svg id="Layer_1" data-name="Layer 1" xmlns="http://www.w3.org/2000/svg" viewBox="0 0 122.71 27.53"><defs><style>.cls-1{fill:#fff;}</style></defs><title>finnegans</title><path class="cls-1" d="M593,562.76h4.27v-12h6.05v-3.67h-6.05v-7.4h8.16V536H593v26.77h0Z" transform="translate(-592.96 -535.63)"/><polygon class="cls-1" points="98.13 9.32 103.36 24.23 106.92 24.23 106.92 0.36 103.22 0.36 103.22 14.01 103.16 14.01 98.17 0.36 94.36 0.36 94.36 24.23 98.07 24.23 98.07 9.32 98.13 9.32"/><path class="cls-1" d="M664,539.23c1.62,0,2.35.93,2.35,4.5h3.9V542.2c0-3.57-2-6.55-6.15-6.55s-6,2.74-6,6.11v12.3c0,3.8,2.25,6.12,5.49,6.12a4.76,4.76,0,0,0,4.13-2.12l0.76,1.79h2v-12.1h-6.71V551h2.61v2.31c0,2.38-.6,3.3-2.25,3.3-1.42,0-1.92-1-1.92-2.51V541.84C662.21,539.82,663,539.23,664,539.23Z" transform="translate(-592.96 -535.63)"/><rect class="cls-1" x="14.31" y="0.36" width="4.1" height="23.87"/><polygon class="cls-1" points="40.49 9.32 45.71 24.23 49.28 24.23 49.28 0.36 45.58 0.36 45.58 14.01 45.51 14.01 40.52 0.36 36.72 0.36 36.72 24.23 40.42 24.23 40.42 9.32 40.49 9.32"/><path class="cls-1" d="M707.91,563.15c-4.25,0-6.4-3.55-6.65-7.06V556l4-.58v0.1c0.24,2.52,1.3,4,2.9,4a2.57,2.57,0,0,0,2.85-2.68c0-2.53-2-4.22-4.08-6-2.57-2.18-5.22-4.44-5.22-8.6s2.45-6.58,6.89-6.58c3.33,0,5.62,2.28,6.12,6.11v0.1l-4,.45v-0.1c-0.33-2.68-2.07-2.89-2.6-2.89-1.55,0-2.49,1.07-2.49,2.87,0,2.14,1.9,3.79,3.91,5.53,2.53,2.19,5.39,4.67,5.39,8.69s-2.7,6.76-7,6.76h0Z" transform="translate(-592.96 -535.63)"/><path class="cls-1" d="M681.25,554.57l0.73,5.29h4L681.54,536h-5.09l-4.4,23.87h4l0.73-5.29h4.5ZM679,540.75H679L680.65,551h-3.3Z" transform="translate(-592.96 -535.63)"/><polygon class="cls-1" points="24.95 9.32 30.17 24.23 33.74 24.23 33.74 0.36 30.04 0.36 30.04 14.01 29.98 14.01 24.98 0.36 21.18 0.36 21.18 24.23 24.89 24.23 24.89 9.32 24.95 9.32"/><polygon class="cls-1" points="52.25 24.23 63.69 24.23 63.69 20.66 56.35 20.66 56.35 13.65 61.64 13.65 61.64 10.08 56.35 10.08 56.35 3.93 63.23 3.93 63.23 0.36 52.25 0.36 52.25 24.23"/><path class="cls-1" d="M714.58,537.91a1.1,1.1,0,1,1,1.1-1.09A1.09,1.09,0,0,1,714.58,537.91Zm0-2.09a1,1,0,1,0,1,1A1,1,0,0,0,714.58,535.82Zm0,0.29a1.16,1.16,0,0,1,.33,0,0.34,0.34,0,0,1,.23.33,0.35,0.35,0,0,1-.26.33,0.29,0.29,0,0,1,.17.28,1.29,1.29,0,0,0,.11.42h-0.34a1.17,1.17,0,0,1-.07-0.3c0-.26-0.05-0.3-0.29-0.3h-0.07v0.61h-0.29v-1.4h0.48Zm-0.18.56h0.17c0.11,0,.28,0,0.28-0.17a0.15,0.15,0,0,0-.08-0.14,0.54,0.54,0,0,0-.24,0h-0.13v0.33Z" transform="translate(-592.96 -535.63)"/></svg>