<svg id="Layer_1" data-name="Layer 1" xmlns="http://www.w3.org/2000/svg" viewBox="0 0 145.3 25.14"><defs><style>.cls-1{fill:#fff;}</style></defs><title>hipposak</title><path class="cls-1" d="M590.52,854.61a0.48,0.48,0,0,0-.48-0.48h-3.1a0.48,0.48,0,0,0-.48.48v4.67a0.48,0.48,0,0,1-.48.48h-4a0.48,0.48,0,0,1-.48-0.48V845.43A0.48,0.48,0,0,1,582,845h4a0.48,0.48,0,0,1,.48.48v4.06a0.48,0.48,0,0,0,.48.48H590a0.48,0.48,0,0,0,.48-0.48v-4.06A0.48,0.48,0,0,1,591,845h4a0.48,0.48,0,0,1,.48.48v13.85a0.48,0.48,0,0,1-.48.48h-4a0.48,0.48,0,0,1-.48-0.48v-4.67Zm6.51-9.18a0.48,0.48,0,0,1,.48-0.48h4.06a0.48,0.48,0,0,1,.48.48v13.85a0.48,0.48,0,0,1-.48.48H597.5a0.48,0.48,0,0,1-.48-0.48V845.43ZM609,855a0.48,0.48,0,0,0-.48.48v3.81a0.48,0.48,0,0,1-.48.48h-4a0.48,0.48,0,0,1-.48-0.48V845.43a0.48,0.48,0,0,1,.48-0.48h5.4l1,0a13.16,13.16,0,0,1,1.74.21,5.66,5.66,0,0,1,1.95.82,4.3,4.3,0,0,1,1.38,1.53,5.68,5.68,0,0,1,0,4.74,4.5,4.5,0,0,1-1.36,1.57,5.62,5.62,0,0,1-1.95.88,12,12,0,0,1-1.77.24l-1,0H609Zm0-6.17a0.48,0.48,0,0,0-.48.48v1.43a0.48,0.48,0,0,0,.48.48h0.09a8.89,8.89,0,0,0,1-.06,1.62,1.62,0,0,0,.56-0.22,1,1,0,0,0,.47-1,1.15,1.15,0,0,0-.13-0.58,0.91,0.91,0,0,0-.35-0.34,1.58,1.58,0,0,0-.49-0.18l-0.18,0-0.84,0H609ZM622.08,855a0.48,0.48,0,0,0-.48.48v3.81a0.48,0.48,0,0,1-.48.48h-4a0.48,0.48,0,0,1-.48-0.48V845.43a0.48,0.48,0,0,1,.48-0.48h5.4l1,0a13.16,13.16,0,0,1,1.74.21,5.65,5.65,0,0,1,1.95.82,4.3,4.3,0,0,1,1.38,1.53,5.68,5.68,0,0,1,0,4.74,4.5,4.5,0,0,1-1.36,1.57,5.62,5.62,0,0,1-1.95.88,12,12,0,0,1-1.77.24l-1,0h-0.45Zm0-6.17a0.48,0.48,0,0,0-.48.48v1.43a0.48,0.48,0,0,0,.48.48h0.09a8.89,8.89,0,0,0,1-.06,1.62,1.62,0,0,0,.56-0.22,1,1,0,0,0,.47-1,1.15,1.15,0,0,0-.13-0.58,0.91,0.91,0,0,0-.35-0.34,1.58,1.58,0,0,0-.49-0.18l-0.18,0-0.84,0h-0.09Zm7.81,3.45a7.93,7.93,0,0,1,.63-3.21,7.14,7.14,0,0,1,1.73-2.44,7.67,7.67,0,0,1,2.6-1.55,10.06,10.06,0,0,1,6.53,0,7.79,7.79,0,0,1,2.61,1.55,7.07,7.07,0,0,1,1.74,2.44,7.93,7.93,0,0,1,.63,3.21,8.15,8.15,0,0,1-.63,3.24A7.31,7.31,0,0,1,644,858a7.79,7.79,0,0,1-2.61,1.6,9.71,9.71,0,0,1-6.53,0,7.67,7.67,0,0,1-2.6-1.6,7.39,7.39,0,0,1-1.73-2.5A8.15,8.15,0,0,1,629.89,852.27Zm5.29,0a3.91,3.91,0,0,0,.22,1.34,3.22,3.22,0,0,0,.61,1,2.65,2.65,0,0,0,.93.68,2.86,2.86,0,0,0,1.17.24,2.76,2.76,0,0,0,2.09-.92,3.13,3.13,0,0,0,.62-1,3.9,3.9,0,0,0,.22-1.34,3.75,3.75,0,0,0-.22-1.31,2.81,2.81,0,0,0-.62-1,2.87,2.87,0,0,0-2.09-.87,3,3,0,0,0-1.17.23,2.73,2.73,0,0,0-.93.64,2.89,2.89,0,0,0-.61,1A3.76,3.76,0,0,0,635.18,852.27Zm47.63,7.91A10,10,0,0,1,681,860a9.61,9.61,0,0,1-1.67-.46,10.44,10.44,0,0,1-1.52-.71,8.26,8.26,0,0,1-.9-0.61,0.44,0.44,0,0,1-.05-0.65l2.39-2.59a0.49,0.49,0,0,1,.68,0,5.61,5.61,0,0,0,1,.69,3.92,3.92,0,0,0,1.79.44,1.93,1.93,0,0,0,.76-0.15,0.54,0.54,0,0,0,.34-0.55,0.56,0.56,0,0,0-.12-0.36,1.3,1.3,0,0,0-.41-0.3,6.64,6.64,0,0,0-.81-0.35l-1.29-.44a10.89,10.89,0,0,1-1.44-.6,5.09,5.09,0,0,1-1.22-.85,3.72,3.72,0,0,1-.85-1.2,4.12,4.12,0,0,1-.31-1.69,4.57,4.57,0,0,1,.56-2.35,4.94,4.94,0,0,1,1.45-1.58,6,6,0,0,1,2-.89,9.16,9.16,0,0,1,2.2-.27,8.51,8.51,0,0,1,3,.56,11.42,11.42,0,0,1,2.29,1.34,0.41,0.41,0,0,1,0,.63l-2.43,2.48a0.48,0.48,0,0,1-.68,0,3.47,3.47,0,0,0-.89-0.62,3.31,3.31,0,0,0-1.32-.32,2.08,2.08,0,0,0-.88.16,0.53,0.53,0,0,0-.33.51,0.54,0.54,0,0,0,.35.5,9.57,9.57,0,0,0,1.12.42q0.79,0.25,1.67.59a7.1,7.1,0,0,1,1.62.87,4.56,4.56,0,0,1,1.22,1.31,3.58,3.58,0,0,1,.48,1.92,4.86,4.86,0,0,1-.53,2.33,5,5,0,0,1-1.4,1.65,6.07,6.07,0,0,1-2,1A7.72,7.72,0,0,1,682.81,860.18Zm11-14.78a0.76,0.76,0,0,1,.65-0.44h4.34a0.76,0.76,0,0,1,.65.45l5.43,13.92a0.3,0.3,0,0,1-.3.45h-4.46a0.73,0.73,0,0,1-.64-0.45L699,858a0.73,0.73,0,0,0-.64-0.45H694.6a0.71,0.71,0,0,0-.63.45l-0.43,1.27a0.71,0.71,0,0,1-.63.45H688.6a0.3,0.3,0,0,1-.3-0.44Zm2.9,5.18c-0.08-.25-0.22-0.25-0.3,0l-0.91,2.75a0.32,0.32,0,0,0,.33.45h1.45a0.33,0.33,0,0,0,.33-0.45Zm14.13,3.69a3.63,3.63,0,0,0-.29-0.4,2.77,2.77,0,0,0,0,.48v4.94a0.48,0.48,0,0,1-.48.48h-3.88a0.48,0.48,0,0,1-.48-0.48V845.43a0.48,0.48,0,0,1,.48-0.48H710a0.48,0.48,0,0,1,.48.48v4.5a2.77,2.77,0,0,0,0,.48,3.75,3.75,0,0,0,.3-0.39l3.39-4.69A1.06,1.06,0,0,1,715,845h4.9c0.26,0,.34.17,0.17,0.37l-5,6a0.65,0.65,0,0,0,0,.76l5.27,7.26c0.15,0.21.07,0.39-.2,0.39H715a1,1,0,0,1-.74-0.4Zm-50-2.09a0.54,0.54,0,0,0,.1-0.43,1.24,1.24,0,0,0-.26-0.55,2.68,2.68,0,0,0-.7-0.61,1.88,1.88,0,0,0-1-.33,0.64,0.64,0,0,0-.48.25,0.51,0.51,0,0,0,0,.58,3.38,3.38,0,0,0,.53.76,2.49,2.49,0,0,0,1,.62,1.18,1.18,0,0,0,.21,0A0.74,0.74,0,0,0,660.85,852.17Zm12.62,2.09a0.79,0.79,0,0,1,0-.17,0.11,0.11,0,0,1,.11-0.1h0.06l0.1,0.06L674,854.3a5,5,0,0,0,1,.55l0.12,0,0.51,0.07,0.42,0h0a0.16,0.16,0,0,0,.16-0.13,0.2,0.2,0,0,0-.09-0.22c-0.13-.09-0.27-0.17-0.39-0.28a4.83,4.83,0,0,1-1-1.09,6.58,6.58,0,0,1-.44-0.8,9.31,9.31,0,0,1-.37-0.94c-0.08-.25-0.13-0.52-0.19-0.78s-0.09-.46-0.14-0.68-0.11-.38-0.15-0.57-0.14-.68-0.23-1-0.24-.86-0.38-1.29a8.69,8.69,0,0,0-.41-1c-0.22-.46-0.46-0.91-0.71-1.34s-0.41-.61-0.62-0.91a8.58,8.58,0,0,0-.94-1.13,7.93,7.93,0,0,0-1.1-.94c-0.22-.15-0.44-0.31-0.67-0.44s-0.55-.3-0.83-0.43-0.6-.26-0.9-0.37-0.58-.19-0.87-0.27a9.62,9.62,0,0,0-1-.22c-0.39-.05-0.78-0.07-1.18-0.1l-1.08,0a0.29,0.29,0,0,1-.28-0.2,0.27,0.27,0,0,1,.07-0.28,1.59,1.59,0,0,0,.25-0.44,0.59,0.59,0,0,0-.23-0.75,0.52,0.52,0,0,0-.35-0.09h-0.1a1.39,1.39,0,0,0-1.27,1.3,2.37,2.37,0,0,0,0,.81,2.7,2.7,0,0,0,.93,1.34c0.3,0.24.62,0.47,0.93,0.7a2.45,2.45,0,0,1,.7.64,1.66,1.66,0,0,1,.22.43,2.6,2.6,0,0,1,.09,1c0,0.19,0,.38-0.05.57a1,1,0,0,0,.05.62,2.81,2.81,0,0,0,.35.48,3,3,0,0,0,.44.37,6.25,6.25,0,0,0,.66.44,12.86,12.86,0,0,0,1.25.62,3.36,3.36,0,0,1,1.15.74,1.28,1.28,0,0,1,.41.71,1.35,1.35,0,0,1-.16,1,1.72,1.72,0,0,1-.52.5l-0.54.36a0.71,0.71,0,0,0-.28.72,0.67,0.67,0,0,0,.13.33,0.6,0.6,0,0,0,.46.23,0.91,0.91,0,0,0,.51-0.19,1.87,1.87,0,0,0,.36-0.43c0.09-.12.16-0.25,0.24-0.37a0.22,0.22,0,0,1,.17-0.12,0.21,0.21,0,0,1,.15.08,2,2,0,0,1,.29.38,3,3,0,0,1,.37,1.81,5.5,5.5,0,0,1-.53,2.39,5.43,5.43,0,0,1-.44.73,2.51,2.51,0,0,1-1.19.92,2.43,2.43,0,0,1-.78.17H666a21,21,0,0,0-3-.25,6.56,6.56,0,0,0-2.55.39,4.67,4.67,0,0,1-1.86.42c-2.35,0-3.49-2.25-3.78-2.68-1.1-2.28-.13-4.21-0.39-4.95a3.25,3.25,0,0,0-.74-1.22,9.46,9.46,0,0,1-.81-1.25,9.88,9.88,0,0,1-.58-1.77,6,6,0,0,1,0-1.66,6.2,6.2,0,0,1,.4-1.55c0.11-.26.21-0.53,0.34-0.78s0.33-.65.52-1a1.61,1.61,0,0,0,.18-1.18,1.31,1.31,0,0,0-.77-1,1.66,1.66,0,0,0-.5-0.11h-0.19a0.85,0.85,0,0,0-.52.16,1.15,1.15,0,0,0-.31.47,0.76,0.76,0,0,0,.13.89,3.43,3.43,0,0,0,.38.3,0.37,0.37,0,0,1,.15.5c-0.12.3-.26,0.58-0.4,0.87l-0.07.15c-0.14.33-.28,0.66-0.41,1-0.06.16-.11,0.33-0.16,0.49-0.14.43-.29,0.86-0.42,1.3s-0.16.62-.24,0.93-0.14.51-.19,0.77-0.08.46-.12,0.69-0.1.48-.13,0.72-0.07.7-.13,1a8.7,8.7,0,0,0-.11,1.35c0,0.84,0,1.69,0,2.53,0,0.21,0,.42,0,0.63s0.07,0.54.11,0.81,0,0.46.08,0.68,0.12,0.7.19,1.05,0.12,0.61.19,0.91c0.11,0.48.23,1,.36,1.43,0,0.16.1,0.32,0.15,0.47,0.18,0.53.35,1.06,0.53,1.59,0.12,0.35.27,0.69,0.42,1a5.13,5.13,0,0,0,.7,1.28,0.81,0.81,0,0,0,.64.37h7.1c0.78,0-.2-3.07-0.47-4-0.1-.63,1.06-1.08,2-1.08a1.34,1.34,0,0,1,1.24.5c0.48,1.2,1,4.53,1.92,4.53,0.12,0,3.82,0,5.37,0h0.39a1.13,1.13,0,0,0,.47-0.09,1.22,1.22,0,0,0,.7-0.72c0.12-.34.25-0.68,0.36-1s0.16-.55.23-0.82,0.14-.6.21-0.9,0.14-.69.21-1c0-.18.09-0.35,0.12-0.53,0.06-.37.1-0.74,0.15-1.11s0.08-.45.11-0.67,0-.44.08-0.65A11.93,11.93,0,0,0,673.47,854.26Zm-15.73-8.74a1.18,1.18,0,0,0,0-.4,1.54,1.54,0,0,0-.6-0.81,1.36,1.36,0,0,0-1.61-.05,0.28,0.28,0,0,0,.35.43,0.71,0.71,0,0,1,.67-0.06,1,1,0,1,0,1.23,1.1,1,1,0,0,0,0-.12h0S657.74,845.55,657.74,845.52Zm65.65-.2h-0.87v2.4h-0.46v-2.4H721.2V845h2.19v0.37Zm3.39,2.4h-0.46v-2.31h0l-0.91,2.31h-0.29l-0.91-2.31h0v2.31h-0.46V845h0.71l0.83,2.1,0.81-2.1h0.7v2.77Z" transform="translate(-581.48 -838.24)"/></svg>