<svg id="Layer_1" data-name="Layer 1" xmlns="http://www.w3.org/2000/svg" viewBox="0 0 146.78 30.87"><defs><style>.cls-1{fill:#fff;}</style></defs><title>kubota</title><rect class="cls-1" width="5.37" height="21.9"/><polygon class="cls-1" points="14.14 15.51 28.07 0 21.16 0 7.23 15.51 21.3 30.75 28.21 30.75 14.14 15.51"/><path class="cls-1" d="M431.7,643.14h-5.34V655.5s0,0.7.28,0.7h5.55a1.73,1.73,0,0,1-.49-0.84V643.14Z" transform="translate(-399.41 -634.3)"/><path class="cls-1" d="M447.27,643.14h-5.32v11s-0.16,5.48-5.21,5.63a7,7,0,0,1-2.11-.32v5.48a10.68,10.68,0,0,0,1.9.16,10.55,10.55,0,0,0,10.74-10.58V643.14Z" transform="translate(-399.41 -634.3)"/><path class="cls-1" d="M458.32,634.3H452.9v21.9h5.95a4.76,4.76,0,0,1-.32-1.84c0-1.16.58-5.69,5.69-5.69a5.44,5.44,0,0,1,5.32,5.63,5.58,5.58,0,0,1-5.37,5.48,3.84,3.84,0,0,1-2.21-.42v5.58l2.19,0.16c1.95,0.16,10.69-1.91,10.69-10.83,0-9.42-9-11.13-10.72-11.13a13.3,13.3,0,0,0-5.79,1.42V634.3Z" transform="translate(-399.41 -634.3)"/><path class="cls-1" d="M487.44,665a10.73,10.73,0,0,0,2.09.2,10.91,10.91,0,1,0-10.91-10.91,11,11,0,0,0,.17,1.94h5.47a5.54,5.54,0,0,1,5.27-7.54,5.5,5.5,0,0,1,5.63,5.49,5.64,5.64,0,0,1-5.65,5.66,5.73,5.73,0,0,1-2.07-.38V665Z" transform="translate(-399.41 -634.3)"/><path class="cls-1" d="M539.88,654.26a10.87,10.87,0,1,0-21.74,0,11,11,0,0,0,.17,1.94h5.47a5.54,5.54,0,0,1,5.27-7.54,5.5,5.5,0,0,1,5.63,5.49,5.64,5.64,0,0,1-5.65,5.66,5.72,5.72,0,0,1-2.07-.38V665a10.73,10.73,0,0,0,2.09.2,8,8,0,0,0,5.77-2.44V665h5.06V654.26Z" transform="translate(-399.41 -634.3)"/><polygon class="cls-1" points="110.9 0 105.51 0 105.51 30.75 110.9 30.75 110.9 14.32 116.35 14.32 116.35 8.85 110.9 8.85 110.9 0"/><path class="cls-1" d="M543.83,660.34a2.35,2.35,0,1,1-2.37,2.34A2.34,2.34,0,0,1,543.83,660.34Zm0,4.36a2,2,0,1,0-1.94-2A1.94,1.94,0,0,0,543.83,664.7Zm-0.92-3.38H544a0.78,0.78,0,0,1,1,.79,0.71,0.71,0,0,1-.72.75l0.79,1.21h-0.46l-0.75-1.18h-0.45v1.18h-0.43v-2.75Zm0.43,1.22h0.45c0.38,0,.72,0,0.72-0.45s-0.31-.42-0.6-0.42h-0.57v0.87Z" transform="translate(-399.41 -634.3)"/></svg>