<svg id="Layer_1" data-name="Layer 1" xmlns="http://www.w3.org/2000/svg" viewBox="0 0 144.01 18.81"><defs><style>.cls-1{fill:#fff;}</style></defs><title>moa</title><polygon class="cls-1" points="26.07 10.79 28.48 10.79 27.27 8.06 26.07 10.79"/><polygon class="cls-1" points="127.53 10.79 129.95 10.79 128.74 8.06 127.53 10.79"/><circle class="cls-1" cx="55.5" cy="9.41" r="3.01"/><polygon class="cls-1" points="76.1 10.79 78.51 10.79 77.31 8.06 76.1 10.79"/><path class="cls-1" d="M326.91,647.38h-1.59v2.45h1.59A1.23,1.23,0,0,0,326.91,647.38Z" transform="translate(-220.22 -640.89)"/><path class="cls-1" d="M226.33,640.89l-6.11,18.81h137.9l6.11-18.81H226.33Zm14.11,13.73-1-4.67-2.27,5.14L234.88,650l-1,4.67h-1.44l2-9.19,2.74,6.2,2.74-6.2,2,9.19h-1.44Zm9.56,0-0.68-1.54h-3.66L245,654.63h-1.53l4-9.15,4,9.15H250Zm8.11,0h-4.39V646h1.41v7.25h3v1.41Zm6.88,0H260.6V646H262v7.25h3v1.41Zm10.73,0.09a4.41,4.41,0,1,1,4.41-4.41A4.41,4.41,0,0,1,275.72,654.71Zm12.22-7.34h-3.66v2.2h2.64V651h-2.64v3.65h-1.41V646h5.06v1.41Zm12.1,7.25-0.68-1.54H295.7L295,654.63h-1.53l4-9.15,4,9.15H300Zm11.11,0-1-4.67-2.27,5.14L305.59,650l-1,4.67h-1.44l2-9.19,2.74,6.2,2.74-6.2,2,9.19h-1.44Zm9.5-7.25H317v2.2h2.64V651H317v2.24h3.66v1.41h-5.06V646h5.06v1.41Zm7.58,7.25-1.5-3.39h-1.41v3.39h-1.41V646h3a2.63,2.63,0,0,1,1.22,5l1.63,3.69h-1.54Zm5.66,0h-1.41V646h1.41v8.66Zm7,0.09a4.41,4.41,0,1,1,2.53-8L342.86,648a3,3,0,1,0,0,4.59l0.58,1.32A4.39,4.39,0,0,1,340.91,654.71Zm10.55-.09-0.68-1.54h-3.66l-0.68,1.54h-1.53l4-9.15,4,9.15h-1.53Zm3.34,0a0.7,0.7,0,1,1,.7-0.7A0.69,0.69,0,0,1,354.81,654.65Z" transform="translate(-220.22 -640.89)"/><path class="cls-1" d="M354.88,653.68h-0.2v0.22h0.2a0.11,0.11,0,0,0,.12-0.11A0.11,0.11,0,0,0,354.88,653.68Z" transform="translate(-220.22 -640.89)"/><path class="cls-1" d="M354.81,653.36a0.59,0.59,0,1,0,.59.59A0.58,0.58,0,0,0,354.81,653.36Zm0.32,1H355l-0.15-.3h-0.15v0.3h-0.13v-0.77h0.34a0.23,0.23,0,0,1,.25.23,0.22,0.22,0,0,1-.16.23Z" transform="translate(-220.22 -640.89)"/></svg>