<svg id="Layer_1" data-name="Layer 1" xmlns="http://www.w3.org/2000/svg" viewBox="0 0 144.51 35.24"><defs><style>.cls-1{fill:#fff;}</style></defs><title>prime</title><path class="cls-1" d="M86.14,661.24h-1.9v-0.63h4.49v0.63h-1.9v5.63h-0.7v-5.63Z" transform="translate(-39.28 -631.74)"/><path class="cls-1" d="M92.7,660.61h0.7v2.73H96.6v-2.73h0.7v6.26H96.6V664H93.4v2.9H92.7v-6.26Z" transform="translate(-39.28 -631.74)"/><path class="cls-1" d="M101.88,660.61h3.53v0.63h-2.83v2.1h2.75V664h-2.75v2.27h2.83v0.63h-3.53v-6.26Z" transform="translate(-39.28 -631.74)"/><path class="cls-1" d="M111.53,664.19H110.3v2.68h-0.7v-6.26h1.94c1.67,0,2.14.89,2.14,1.71a1.75,1.75,0,0,1-1.42,1.81l1.66,2.75h-0.86Zm0-.63a1.17,1.17,0,0,0,1.38-1.14,1.19,1.19,0,0,0-1.43-1.17h-1.2v2.31h1.25Z" transform="translate(-39.28 -631.74)"/><path class="cls-1" d="M119.93,660.61h0.72l2.35,6.26h-0.79l-0.63-1.77H119l-0.62,1.77h-0.79Zm0.37,0.88h0l-1.06,3h2.13Z" transform="translate(-39.28 -631.74)"/><path class="cls-1" d="M127,660.61h2a1.83,1.83,0,0,1,2.05,1.93,1.9,1.9,0,0,1-2.15,1.91h-1.19v2.41H127v-6.26Zm1.78,3.21a1.29,1.29,0,0,0,1.51-1.29,1.24,1.24,0,0,0-1.45-1.29h-1.14v2.58h1.08Z" transform="translate(-39.28 -631.74)"/><path class="cls-1" d="M135.1,660.61h3.53v0.63H135.8v2.1h2.75V664H135.8v2.27h2.83v0.63H135.1v-6.26Z" transform="translate(-39.28 -631.74)"/><path class="cls-1" d="M142.76,660.61h0.7v4.08a1.48,1.48,0,0,0,1.6,1.67,1.56,1.56,0,0,0,1.6-1.81v-3.94h0.7v3.94a2.19,2.19,0,0,1-2.29,2.43,2.05,2.05,0,0,1-2.3-2.19v-4.19Z" transform="translate(-39.28 -631.74)"/><path class="cls-1" d="M153.21,661.24h-1.9v-0.63h4.49v0.63h-1.9v5.63h-0.7v-5.63Z" transform="translate(-39.28 -631.74)"/><path class="cls-1" d="M159.82,660.61h0.7v6.26h-0.7v-6.26Z" transform="translate(-39.28 -631.74)"/><path class="cls-1" d="M170.18,662.64a2,2,0,0,0-2.07-1.52,2.38,2.38,0,0,0-2.43,2.61,2.35,2.35,0,0,0,2.43,2.61,2.05,2.05,0,0,0,2.11-1.73l0.7,0.08A2.75,2.75,0,0,1,168,667a3,3,0,0,1-3.11-3.25,3.13,3.13,0,0,1,3.18-3.25,2.53,2.53,0,0,1,2.78,2.1Z" transform="translate(-39.28 -631.74)"/><path class="cls-1" d="M178.62,662.24a1.24,1.24,0,0,0-1.41-1.12,1.21,1.21,0,0,0-1.41,1.16c0,0.42.25,0.81,1.4,1,1.57,0.31,2.28.69,2.28,1.78S178.8,667,177.18,667c-1.41,0-2.2-.7-2.27-1.85h0.71a1.39,1.39,0,0,0,1.59,1.22,1.29,1.29,0,0,0,1.51-1.18c0-.68-0.38-0.9-1.49-1.13-1.44-.3-2.14-0.7-2.14-1.75a2.16,2.16,0,0,1,4.25,0h-0.72Z" transform="translate(-39.28 -631.74)"/><path class="cls-1" d="M85.45,641.23c0-3.76,0-4.44-.05-5.21a1.18,1.18,0,0,0-1-1.37,4.47,4.47,0,0,0-.82-0.07,0.17,0.17,0,0,1-.19-0.14c0-.15.12-0.19,0.39-0.19,1.08,0,2.53.07,2.73,0.07,0.53,0,1.93-.07,3-0.07,3,0,4.1,1,4.49,1.37a4.19,4.19,0,0,1,1.21,2.87,5.6,5.6,0,0,1-5.94,5.74,3.88,3.88,0,0,1-.51,0,0.23,0.23,0,0,1-.26-0.17c0-.19.14-0.22,0.65-0.22a4,4,0,0,0,4.17-3.93A5.11,5.11,0,0,0,92,636.16a4.19,4.19,0,0,0-3.3-1.2,3.11,3.11,0,0,0-1,.14,0.44,0.44,0,0,0-.19.46v9.91c0,2.32,0,4.22.12,5.23a1.16,1.16,0,0,0,.94,1.33c0.34,0,.87.09,1.08,0.09a0.16,0.16,0,0,1,.2.14c0,0.12-.12.19-0.39,0.19-1.32,0-2.85-.07-3-0.07s-1.59.07-2.32,0.07c-0.27,0-.39,0-0.39-0.19a0.16,0.16,0,0,1,.19-0.14,3.91,3.91,0,0,0,.72-0.09c0.48-.1.6-0.63,0.7-1.33,0.12-1,.12-2.92.12-5.23v-4.24Z" transform="translate(-39.28 -631.74)"/><path class="cls-1" d="M104.16,641.23c0-3.76,0-4.44,0-5.21a1.19,1.19,0,0,0-1-1.37,4.47,4.47,0,0,0-.82-0.07,0.17,0.17,0,0,1-.19-0.14c0-.15.12-0.19,0.39-0.19,1.08,0,2.6.07,2.72,0.07s2.1-.07,2.84-0.07a7.42,7.42,0,0,1,4.41,1.06,4.22,4.22,0,0,1,1.66,3.28c0,1.78-.75,3.57-2.92,5.57,2,2.53,3.62,4.68,5,6.17a5,5,0,0,0,2.94,1.74,5.74,5.74,0,0,0,.94.07,0.2,0.2,0,0,1,.22.14c0,0.14-.14.19-0.58,0.19H118a4.91,4.91,0,0,1-2.58-.46c-1-.55-1.88-1.73-3.26-3.54-1-1.33-2.15-2.94-2.63-3.57a0.38,0.38,0,0,0-.31-0.14l-3-.05a0.16,0.16,0,0,0-.17.19v0.58c0,2.32,0,4.22.12,5.23a1.17,1.17,0,0,0,.94,1.33c0.34,0,.87.09,1.08,0.09a0.16,0.16,0,0,1,.19.14c0,0.12-.12.19-0.39,0.19-1.33,0-2.84-.07-3-0.07s-1.55.07-2.27,0.07c-0.27,0-.39,0-0.39-0.19a0.16,0.16,0,0,1,.19-0.14,3.93,3.93,0,0,0,.72-0.09c0.48-.1.6-0.63,0.7-1.33,0.12-1,.12-2.92.12-5.23v-4.24Zm1.93,2.1a0.32,0.32,0,0,0,.17.29,6.66,6.66,0,0,0,2.53.39,3.11,3.11,0,0,0,1.81-.46,4.39,4.39,0,0,0,1.47-3.71c0-3-1.59-4.82-4.17-4.82a7.41,7.41,0,0,0-1.62.14,0.29,0.29,0,0,0-.19.29v7.89Z" transform="translate(-39.28 -631.74)"/><path class="cls-1" d="M129.55,645.48c0,2.32,0,4.22.12,5.23a1.16,1.16,0,0,0,.94,1.33c0.34,0,.87.09,1.08,0.09a0.16,0.16,0,0,1,.19.14c0,0.12-.12.19-0.39,0.19-1.33,0-2.85-.07-3-0.07s-1.64.07-2.36,0.07c-0.26,0-.39,0-0.39-0.19a0.16,0.16,0,0,1,.19-0.14,3.93,3.93,0,0,0,.72-0.09c0.48-.1.6-0.63,0.7-1.33,0.12-1,.12-2.92.12-5.23v-4.24c0-3.76,0-4.44,0-5.21a1.2,1.2,0,0,0-.82-1.35,3.12,3.12,0,0,0-.75-0.1,0.17,0.17,0,0,1-.2-0.14c0-.15.12-0.19,0.39-0.19,0.79,0,2.31.07,2.43,0.07s1.64-.07,2.36-0.07c0.26,0,.38,0,0.38.19a0.17,0.17,0,0,1-.19.14,3.54,3.54,0,0,0-.6.07c-0.65.12-.85,0.53-0.89,1.37s0,1.45,0,5.21v4.24Z" transform="translate(-39.28 -631.74)"/><path class="cls-1" d="M160.2,649.36c0.1,0.87.26,2.22,1.3,2.55a5.15,5.15,0,0,0,1.57.22c0.12,0,.19,0,0.19.12s-0.21.22-.5,0.22c-0.53,0-3.13-.07-4-0.14-0.55,0-.67-0.12-0.67-0.24a0.16,0.16,0,0,1,.17-0.17,1.11,1.11,0,0,0,.1-0.87l-1.16-12.44h-0.07l-5.91,12.54c-0.51,1.07-.58,1.28-0.79,1.28s-0.29-.24-0.75-1.11c-0.63-1.18-2.7-5.35-2.83-5.59-0.22-.43-2.92-6.22-3.18-6.87h-0.1l-1,11.19c0,0.38,0,.82,0,1.23a0.77,0.77,0,0,0,.63.75,4.16,4.16,0,0,0,.92.12,0.17,0.17,0,0,1,.19.12c0,0.17-.15.22-0.43,0.22-0.89,0-2.05-.07-2.24-0.07s-1.38.07-2,.07c-0.24,0-.41,0-0.41-0.22a0.22,0.22,0,0,1,.24-0.12,3.1,3.1,0,0,0,.73-0.07c0.79-.15.87-1.09,1-2l1.74-15.72a0.39,0.39,0,0,1,.26-0.43,0.44,0.44,0,0,1,.36.36l7.38,15.17,7.09-15.15a0.5,0.5,0,0,1,.36-0.39c0.17,0,.24.19,0.29,0.65Z" transform="translate(-39.28 -631.74)"/><path class="cls-1" d="M170.48,641.23c0-3.76,0-4.44,0-5.21a1.19,1.19,0,0,0-1-1.37,4.46,4.46,0,0,0-.82-0.07,0.17,0.17,0,0,1-.19-0.14c0-.15.12-0.19,0.39-0.19,0.56,0,1.21,0,1.73,0l1,0c0.16,0,5,0,5.52,0a6.28,6.28,0,0,0,1-.12,2,2,0,0,1,.34-0.12c0.07,0,.1.1,0.1,0.22s-0.12.46-.19,1.13c0,0.24-.07,1.3-0.12,1.59a0.29,0.29,0,0,1-.17.27c-0.14,0-.19-0.12-0.19-0.32a2.63,2.63,0,0,0-.14-0.86c-0.17-.39-0.41-0.68-1.71-0.82-0.41,0-3-.07-3.31-0.07-0.1,0-.15.07-0.15,0.24v6.66c0,0.17,0,.24.15,0.24,0.31,0,3.28,0,3.84,0a1.62,1.62,0,0,0,1.13-.34,0.73,0.73,0,0,1,.36-0.31c0.07,0,.12,0,0.12.19s-0.12.55-.19,1.35c0,0.48-.1,1.38-0.1,1.54s0,0.46-.17.46a0.18,0.18,0,0,1-.17-0.22,2.43,2.43,0,0,0-.1-0.8,1.19,1.19,0,0,0-1.25-.84c-0.65-.07-3-0.12-3.45-0.12a0.15,0.15,0,0,0-.17.17v2.12c0,0.82,0,3.62,0,4.13,0.07,1.66.44,2,2.8,2a6.93,6.93,0,0,0,2.32-.26,1.93,1.93,0,0,0,1.09-1.74c0-.26.1-0.36,0.22-0.36s0.15,0.19.15,0.36-0.2,1.83-.32,2.34-0.36.63-1.3,0.63c-1.81,0-3.14,0-4.08-.08s-1.52-.07-1.88-0.07l-1,0c-0.48,0-1,0-1.4,0s-0.39,0-.39-0.19a0.16,0.16,0,0,1,.19-0.14,4,4,0,0,0,.73-0.09c0.48-.1.6-0.63,0.7-1.33,0.12-1,.12-2.92.12-5.23v-4.24Z" transform="translate(-39.28 -631.74)"/><path class="cls-1" d="M57.4,635.47a3.14,3.14,0,0,1,2.21.9,51.4,51.4,0,0,1,9.45-2,25.41,25.41,0,0,0-11.58-2.62c-10,0-18.19,5.12-18.19,11.45,0,3,1.8,5.67,4.75,7.71a3.45,3.45,0,0,1-.3-1.44c0-3.2,3.67-7.64,10.52-11A3.14,3.14,0,0,1,57.4,635.47Z" transform="translate(-39.28 -631.74)"/><path class="cls-1" d="M70.55,635.23a39.28,39.28,0,0,0-10.11,2.64,3.35,3.35,0,0,1,.1.75,3.15,3.15,0,0,1-5.42,2.18c-7.32,5.21-8,12.15-1.54,13.54a19.22,19.22,0,0,0,3.89.36c10,0,18.19-5.19,18.19-11.51C75.67,640.09,73.72,637.29,70.55,635.23Z" transform="translate(-39.28 -631.74)"/><path class="cls-1" d="M182.37,659.84a1.43,1.43,0,1,1-1.43,1.43A1.43,1.43,0,0,1,182.37,659.84Zm0,0.19a1.24,1.24,0,1,0,1.22,1.24A1.2,1.2,0,0,0,182.37,660Zm0,1.35H182v0.72h-0.21v-1.69h0.66a0.49,0.49,0,1,1,.14,1l0.48,0.73h-0.26Zm0-.19c0.28,0,.45,0,0.45-0.29s-0.15-.3-0.38-0.3H182v0.59h0.37Z" transform="translate(-39.28 -631.74)"/></svg>