<svg id="Layer_1" data-name="Layer 1" xmlns="http://www.w3.org/2000/svg" viewBox="0 0 145.53 12.71"><defs><style>.cls-1{fill:#fff;}</style></defs><title>raymond_james</title><path class="cls-1" d="M182.24,753.27a2.41,2.41,0,1,1,2.41-2.4,2.41,2.41,0,0,1-2.41,2.4h0Zm0-4.4a2,2,0,1,0,2,2,2,2,0,0,0-2-2h0Z" transform="translate(-39.11 -748.46)"/><path class="cls-1" d="M181.21,749.57h1a0.7,0.7,0,0,1,.82.66,0.67,0.67,0,0,1-.55.66l0.6,0.89h0.27v0.3h-0.47L182.15,751h-0.32v0.79h0.27v0.3h-0.89v-0.3h0.27v-1.9h-0.27v-0.3Zm0.62,1.11H182c0.47,0,.66-0.19.66-0.42a0.41,0.41,0,0,0-.49-0.39h-0.35v0.82Z" transform="translate(-39.11 -748.46)"/><path class="cls-1" d="M44,754.79c1.65,0,2.5-.63,2.5-2.34s-0.65-2.39-2.27-2.39a1.07,1.07,0,0,0-.83.19c-0.05.19-.05,1.36-0.05,1.6v2.94H44Zm12.27,1.5-1.51-4-1.62,4h3.13Zm14.07-6.34a1.75,1.75,0,0,0-1.24,1.15L66.21,756v1.86c0,1.48,0,2.22,1.69,2.17v0.62h-12V760c0.52-.07,1.43,0,1.43-0.77a4.57,4.57,0,0,0-.33-1.13l-0.36-1h-3.8l-0.21.5a4.79,4.79,0,0,0-.41,1.45c0,0.84.79,0.89,1.42,0.95v0.62H47.86l-2.44-3.45c-0.57-.79-1.31-1.65-1.79-1.62l-0.28,0v2.27c0,1.41,0,2.22,1.63,2.17v0.62H39.11V760c1.65,0.05,1.62-.76,1.62-2.17v-5.81c0-1.41,0-2.22-1.62-2.17v-0.62L42,749.33l2.78-.07a9.22,9.22,0,0,1,2.84.41,2.61,2.61,0,0,1,1.7,2.58,2.9,2.9,0,0,1-2.7,2.72L49,757.92a16.15,16.15,0,0,0,1.11,1.47,0.4,0.4,0,0,0,.68,0,8.2,8.2,0,0,0,1.05-2.09l3.41-8.18h0.83L59.64,758a6.25,6.25,0,0,0,.87,1.67,2.13,2.13,0,0,0,1.12.4H62c1.63,0,1.56-.71,1.6-2.17v-1.51l-3-5.3a1.75,1.75,0,0,0-1.45-1.17v-0.62l2.6,0.07,2.94-.07v0.62c-0.47,0-1.29.09-1.29,0.74a4.73,4.73,0,0,0,.62,1.43l1.72,3.11,1.65-2.77a4.79,4.79,0,0,0,.65-1.65c0-.74-0.65-0.86-1.26-0.86v-0.62h7.4l3.37,8,3.1-8,2,0.07,2.17-.07v0.62c-1.67-.05-1.6.79-1.62,2.2v5.4a7.93,7.93,0,0,0,.12,1.65c0.17,0.72.83,0.79,1.48,0.89v0.62H78.94V760c0.65-.1,1.31-0.17,1.48-0.89a7.92,7.92,0,0,0,.12-1.65v-5.43h0l-3.42,8.6H76.26l-3.6-8.72h0v5.28a5.88,5.88,0,0,0,.26,2.14,1.61,1.61,0,0,0,1.38.69v0.62H70.17V760c0.65-.1,1.31-0.17,1.48-0.89a7.86,7.86,0,0,0,.12-1.65v-6.84a1.29,1.29,0,0,0-1-.68A1.64,1.64,0,0,0,70.36,749.94Z" transform="translate(-39.11 -748.46)"/><path class="cls-1" d="M85,755c0-3.68,2.94-5.86,6.4-5.86s6.38,2.2,6.38,5.86-3,5.86-6.43,5.86S85,758.61,85,755Zm3-.1c0,2.2.6,5.18,3.37,5.18s3.46-2.6,3.46-5-0.6-5.18-3.46-5.18S88,752.67,88,754.87Z" transform="translate(-39.11 -748.46)"/><path class="cls-1" d="M110.48,749.9c-1.55,0-1.53.59-1.53,2.72v8.27h-0.84L100.3,752v5.31c0,1.31,0,2.65,1.65,2.72v0.62h-4V760c1.43-.14,1.53-0.84,1.53-2.07v-6.91a2,2,0,0,0-1.72-1.17v-0.62l1.63,0.07,1.94-.07,6.79,7.82v-4.58c0-1.31,0-2.56-1.63-2.63v-0.62h9.74a6.67,6.67,0,0,1,4.56,1.44,5.75,5.75,0,0,1,1.94,4.52,5.31,5.31,0,0,1-1.68,4.1,6.32,6.32,0,0,1-4.49,1.32c-0.91,0-5.54,0-5.54,0V760c1.65,0.05,1.62-.76,1.62-2.17v-5.81c0-1.36,0-2.16-1.62-2.16h-0.49Zm4.43,7a9,9,0,0,0,.17,2.17,1.36,1.36,0,0,0,1.39.84c2.67,0,2.93-2.65,2.93-4.73a8.26,8.26,0,0,0-.69-3.58,3.15,3.15,0,0,0-3-1.49,1.37,1.37,0,0,0-.69.16,0.77,0.77,0,0,0-.07.41v6.23Z" transform="translate(-39.11 -748.46)"/><path class="cls-1" d="M129.07,756.59a0.78,0.78,0,0,0-.23.13,2.51,2.51,0,0,0-.38,2,2,2,0,0,0,2.18,1.6c1.73-.23,1.43-1.53,1.43-5.2v-3c0-1.43-.06-2.24-1.73-2.2v-0.62l2.71,0.07,3.39-.07v0.62c-1.42,0-1.62.28-1.62,2.2v4.15c0,2.85-.75,4.34-3.47,4.82-2,.35-4.66-0.09-5.41-2.06a6.29,6.29,0,0,1-.23-2.47l2.53-.5,0.7-.13,0.13,0.69" transform="translate(-39.11 -748.46)"/><path class="cls-1" d="M141.35,756.27l-1.51-4-1.62,4h3.13ZM170.81,757h0.68c0.48,1.56,1.27,3,3.18,3a1.83,1.83,0,0,0,2-1.72c0-1.6-1.65-2-2.86-2.55-1.55-.67-2.8-1.53-2.8-3.42,0-2.11,1.62-3.25,3.61-3.25a3.73,3.73,0,0,1,2.58.84l0.23-.67h0.74l0.1,3.1h-0.74a2.94,2.94,0,0,0-2.79-2.48,1.54,1.54,0,0,0-1.7,1.41c0,1.29,1.31,1.65,2.29,2.1,1.84,0.79,3.58,1.6,3.58,3.9s-2,3.52-4.08,3.52a4.19,4.19,0,0,1-3-1.17l-0.24,1H154.4V760c0.65-.1,1.31-0.18,1.48-0.89a7.79,7.79,0,0,0,.12-1.65V752h0l-3.42,8.6h-0.83l-3.6-8.72h0v5.28a5.8,5.8,0,0,0,.26,2.13,1.61,1.61,0,0,0,1.38.69v0.62H141V760c0.52-.07,1.43,0,1.43-0.77a4.45,4.45,0,0,0-.33-1.14l-0.36-1h-3.8l-0.21.5a4.78,4.78,0,0,0-.41,1.45c0,0.84.79,0.89,1.43,0.95v0.62h-3.84V760a2.2,2.2,0,0,0,1.44-1.32,14.87,14.87,0,0,0,.62-1.43l3.41-8.18h0.83l3.54,8.84a6.17,6.17,0,0,0,.88,1.67,1.2,1.2,0,0,0,.42.24,0.72,0.72,0,0,0,.44,0,1,1,0,0,0,.66-0.72,7.78,7.78,0,0,0,.12-1.65v-6.84a1.78,1.78,0,0,0-1.6-.76v-0.62l1.87,0.07,2.15-.07,3.37,8,3.1-8h13.82l0.14,3h-0.74c-0.29-1.7-1.27-2.24-2.92-2.24a3.39,3.39,0,0,0-1.41.19,5.74,5.74,0,0,0-.05,1v3.18c1.39,0,2.29-.26,2.36-1.86H168c0,0.79-.06,1.58-0.07,2.38s0.05,1.43.07,2.13H167.3c-0.32-1.58-.77-1.86-2.36-1.86v2c0,1.62-.05,2.65,2,2.65h0.86c1.82,0,2.53-.64,3-2.53C170.78,757.21,170.81,757,170.81,757Zm-8.49-5c0-1.11,0-1.84-.77-2.09a3,3,0,0,0-.7-0.08H160.1a3,3,0,0,0-.7.08c-0.79.24-.77,1-0.77,2.09v5.8c0,1.11,0,1.85.77,2.09a3.22,3.22,0,0,0,.7.08h0.74a3.16,3.16,0,0,0,.7-0.08c0.79-.24.77-1,0.77-2.09V752h0Z" transform="translate(-39.11 -748.46)"/></svg>