<svg id="Layer_1" data-name="Layer 1" xmlns="http://www.w3.org/2000/svg" viewBox="0 0 145.79 40.64"><defs><style>.cls-1{fill:#fff;}</style></defs><title>syngenta</title><path class="cls-1" d="M223.71,760.33" transform="translate(-218.59 -729.47)"/><path class="cls-1" d="M338.34,747.24h-4.61v7.64c0,2.17,1.14,2.58,2.63,2.58a12.83,12.83,0,0,0,1.64-.15l0.34,3.42a25.35,25.35,0,0,1-3.87.4c-3.18,0-6-1.11-6-5v-8.88h-2.68v-3.37h2.68v-3.72l5.26-1.49v5.21h4.61v3.37Z" transform="translate(-218.59 -729.47)"/><path class="cls-1" d="M324.19,760.78h-5.26V749.92c0-1.6-.67-2.48-2.48-2.48a4.93,4.93,0,0,0-3.22,1.44v11.91H308V743.86h5.11v1.49a10.4,10.4,0,0,1,5.8-1.88c3.36,0,5.31,2.08,5.31,5.26v12.06Z" transform="translate(-218.59 -729.47)"/><path class="cls-1" d="M297.35,729.47c-2.66,4.51-1.5,8.59-4.11,11.19-2.09,2.09-4,2-6.31,2a6.34,6.34,0,0,0-3,.54,12.71,12.71,0,0,1-.53-3.75,7.43,7.43,0,0,1,2-5.6C288.4,730.92,293.76,730,297.35,729.47Z" transform="translate(-218.59 -729.47)"/><path class="cls-1" d="M268.92,760.78h-5.26V749.92c0-1.6-.67-2.48-2.48-2.48a5,5,0,0,0-3.23,1.44v11.91H252.7V743.86h5.11v1.49a10.4,10.4,0,0,1,5.8-1.88c3.36,0,5.31,2.08,5.31,5.26v12.06Z" transform="translate(-218.59 -729.47)"/><path class="cls-1" d="M251.61,743.86l-8.43,20.49c-1.3,3.15-3.9,5.46-7.44,5.46a14.82,14.82,0,0,1-3.87-.49l0.74-3.38a10.25,10.25,0,0,0,2.29.3c2.11,0,3.24-1.8,4.27-4.27l0.5-1.19-6.55-16.92h5.66l3.07,8.39a21.24,21.24,0,0,1,.74,2.78c0.2-.74.57-2,0.94-2.93l3.18-8.24h4.91Z" transform="translate(-218.59 -729.47)"/><path class="cls-1" d="M233,755.38c0,3.68-3.4,5.7-7.44,5.7a17.84,17.84,0,0,1-7-1.34l1.44-3.42a14.24,14.24,0,0,0,4.81,1.14c1.22,0,2.93-.15,2.93-1.64a1.36,1.36,0,0,0-1.24-1.29c-1-.3-2.55-0.56-3.57-0.84-2.15-.59-3.92-1.72-3.92-4.86,0-3.49,3-5.66,7-5.66a19.68,19.68,0,0,1,5.9.79l-1.34,3.42a12.17,12.17,0,0,0-3.87-.74c-1.45,0-2.43.55-2.43,1.44a1.33,1.33,0,0,0,1,1.24c0.82,0.27,2.13.5,3.23,0.74C230.86,750.56,233,751.84,233,755.38Z" transform="translate(-218.59 -729.47)"/><path class="cls-1" d="M354.48,760.78h-5v-1.34a7.09,7.09,0,0,1-4.81,1.69c-3.15,0-5.31-1.52-5.31-4.71,0-5.61,5.6-6.48,10-6.5v-0.45c0-1.39-.53-2.38-3-2.38a10.44,10.44,0,0,0-4.87,1.59l-1.29-3.13a16.63,16.63,0,0,1,7.64-2.08c4,0,6.65,1.93,6.65,5.31v12Zm-5.11-4.51v-3.13c-2.44,0-4.71.2-4.71,2.53a1.91,1.91,0,0,0,2.13,1.88A3.36,3.36,0,0,0,349.37,756.27Z" transform="translate(-218.59 -729.47)"/><path class="cls-1" d="M305.66,751.7c0,0.56,0,1.14,0,1.74H294.4c0,2.46,1.27,3.92,4.86,3.92a8.92,8.92,0,0,0,4.32-1.29L305,759.2a15.6,15.6,0,0,1-7.59,1.94c-5.26,0-8.53-3.39-8.53-8.78a8.72,8.72,0,0,1,8.93-8.88C303.55,743.47,305.66,746.84,305.66,751.7Zm-5.41-1.64c0.09-1.86-.85-3-2.68-3s-2.83,1.3-3.12,3h5.8Z" transform="translate(-218.59 -729.47)"/><path class="cls-1" d="M288.85,762.87c0,4.93-4.92,7.22-9.77,7.24-4.27,0-8.39-1.21-8.39-5.31,0-1.92,1.7-3.2,2.73-3.87a5.37,5.37,0,0,1-1.54-1.09,3.74,3.74,0,0,1-.84-2.63c0-1.65,1.45-3.18,3.22-4.17-1-.51-2.28-1.35-2.28-4.12,0-3.61,3.42-5.51,7.89-5.51,3.8,0,7.44.91,7.44,5.36,0,4.25-4,5.81-8,5.81a10.66,10.66,0,0,1-2.09-.25,2.21,2.21,0,0,0-1.29,1.44c0,1.3,1.78,1.49,2.58,1.49h4.17C286.52,757.26,288.85,759.14,288.85,762.87ZM282.21,749a2.36,2.36,0,0,0-2.53-2.58,2.59,2.59,0,0,0-2.58,2.58,2.4,2.4,0,0,0,2.48,2.58A2.44,2.44,0,0,0,282.21,749Zm1.39,14.54c0-1.38-1.11-1.89-2.24-1.89h-4.61a3.19,3.19,0,0,0-1.79,2.43c0,1.49,2,2.48,4.36,2.48S283.6,765.46,283.6,763.56Z" transform="translate(-218.59 -729.47)"/><path class="cls-1" d="M364.39,743.34a4.26,4.26,0,1,1-4.2-4.23A4.25,4.25,0,0,1,364.39,743.34Zm-7.65,0a3.39,3.39,0,1,0,3.44-3.43A3.42,3.42,0,0,0,356.73,743.34Zm2.49,2.31H358V741h2.16a3.1,3.1,0,0,1,1.58.27,1.24,1.24,0,0,1,.59,1,1.3,1.3,0,0,1-.89,1.34,1.26,1.26,0,0,1,.84,1.28,1.79,1.79,0,0,0,.15.74h-1.33l0-.12-0.06-.25,0-.32c-0.08-.82-0.4-1.07-1.35-1.07h-0.43v1.75Zm1.09-2.66c0.56,0,.76-0.17.76-0.6s-0.2-.55-0.76-0.55h-1.09V743h1.09Z" transform="translate(-218.59 -729.47)"/></svg>