<svg id="Layer_1" data-name="Layer 1" xmlns="http://www.w3.org/2000/svg" viewBox="0 0 146.62 23.33"><defs><style>.cls-1{fill:#fff;}</style></defs><title>thrivent</title><path class="cls-1" d="M525.27,756.16" transform="translate(-399.82 -738.9)"/><path class="cls-1" d="M413.81,742h-5.06l-2,9.26h-3.87l2-9.26h-5.06l0.66-3.12h14Z" transform="translate(-399.82 -738.9)"/><path class="cls-1" d="M429.89,738.93l-2.66,12.37h-3.87l1-4.58H418l-1,4.56h-3.85l2.68-12.37h3.85l-1,4.51h6.4l1-4.49h3.85Z" transform="translate(-399.82 -738.9)"/><path class="cls-1" d="M444.55,742.48a4.85,4.85,0,0,1-.11,1v0.07a4.86,4.86,0,0,1-4.22,3.87l3.1,3.85h-4.16l-2.55-3.68H433.7l-0.79,3.68H429.3L432,738.91h8.14C442.94,738.91,444.55,740.32,444.55,742.48Zm-3.7.55c0-.75-0.73-1.08-1.67-1.08h-4.25l-0.59,2.69h4.38c1.32,0,1.91-.4,2.09-1.28v-0.07A1.44,1.44,0,0,0,440.85,743Z" transform="translate(-399.82 -738.9)"/><path class="cls-1" d="M447.47,738.91h3.7l-2.66,12.37h-3.72Z" transform="translate(-399.82 -738.9)"/><path class="cls-1" d="M469.08,738.91l-8.34,12.37h-5.15l-3.12-12.37h4.38l1.81,9.46,5.74-9.46h4.67Z" transform="translate(-399.82 -738.9)"/><path class="cls-1" d="M473,742l-0.35,1.59h6.95l-0.64,2.93H472l-0.37,1.72h8.73l-0.66,3.06H467.34L470,738.91h12.36L481.73,742H473Z" transform="translate(-399.82 -738.9)"/><path class="cls-1" d="M498,738.91l-2.68,12.37h-3.21l-5.28-7.86-1.69,7.86h-3.61l2.66-12.37h3.39l5.13,7.66,1.65-7.66H498Z" transform="translate(-399.82 -738.9)"/><path class="cls-1" d="M512.53,742h-5.06l-2,9.26H501.6l2-9.26h-5.06l0.66-3.12h14Z" transform="translate(-399.82 -738.9)"/><path class="cls-1" d="M412.06,754.47l-1.72,7.63h-1l1.48-6.48-5.12,5.17h-0.37l-2.8-5.2-1.47,6.51h-1l1.72-7.63h1l2.85,5.21,5.2-5.21h1.14Z" transform="translate(-399.82 -738.9)"/><path class="cls-1" d="M421.17,758.72c-0.51,2.24-2,3.5-4.61,3.5-2.22,0-3.58-1-3.58-2.8a4,4,0,0,1,.1-0.87l0.92-4.08h1.06l-0.95,4.16a3.17,3.17,0,0,0-.08.7c0,1.35,1.09,2,2.66,2a3.15,3.15,0,0,0,3.44-2.67l1-4.21h1.05Z" transform="translate(-399.82 -738.9)"/><path class="cls-1" d="M431.28,755.33h-3.58l-1.53,6.77h-1l1.53-6.77H423.1l0.18-.86h8.19Z" transform="translate(-399.82 -738.9)"/><path class="cls-1" d="M439.79,758.72c-0.51,2.24-2,3.5-4.61,3.5-2.22,0-3.58-1-3.58-2.8a4,4,0,0,1,.1-0.87l0.92-4.08h1.06l-0.95,4.16a3.17,3.17,0,0,0-.08.7c0,1.35,1.09,2,2.66,2a3.15,3.15,0,0,0,3.44-2.67l1-4.21h1.05Z" transform="translate(-399.82 -738.9)"/><path class="cls-1" d="M447.64,760h-5.19l-1.62,2.06h-1.12l6-7.63h1.13l2.36,7.63h-1Zm-0.24-.8-1.22-4-3.1,4h4.32Z" transform="translate(-399.82 -738.9)"/><path class="cls-1" d="M451.69,761.23h5.69l-0.19.87h-6.66l1.72-7.63h1Z" transform="translate(-399.82 -738.9)"/><path class="cls-1" d="M464.29,755.33l-0.63,2.78h5.08l-0.19.87h-5.08l-0.71,3.11h-1l1.73-7.62h7l-0.19.86h-6Z" transform="translate(-399.82 -738.9)"/><path class="cls-1" d="M479,758.72c-0.51,2.24-2,3.5-4.61,3.5-2.22,0-3.58-1-3.58-2.8a4,4,0,0,1,.1-0.87l0.92-4.08h1.06l-0.95,4.16a3.17,3.17,0,0,0-.08.7c0,1.35,1.09,2,2.66,2a3.15,3.15,0,0,0,3.44-2.67l1-4.21h1.05Z" transform="translate(-399.82 -738.9)"/><path class="cls-1" d="M490.07,754.47l-1.72,7.63h-1l-4.66-6.55-1.48,6.55h-1l1.72-7.63h1l4.64,6.49,1.47-6.49h1Z" transform="translate(-399.82 -738.9)"/><path class="cls-1" d="M499.89,757.55a4.35,4.35,0,0,1-.1.9v0.08c-0.53,2.46-2.39,3.57-5.21,3.57h-4l1.72-7.63H496C498.44,754.47,499.89,755.66,499.89,757.55Zm-6.85-2.2-1.33,5.89h3c2.22,0,3.71-.83,4.13-2.79v-0.08a3.83,3.83,0,0,0,.09-0.77c0-1.49-1.1-2.25-3-2.25H493Z" transform="translate(-399.82 -738.9)"/><path class="cls-1" d="M500.21,761.12l0.46-.92a4.81,4.81,0,0,0,3.44,1.15c1.18,0,2.49-.2,2.76-1.33a1.34,1.34,0,0,0,0-.34c0-.86-1-0.95-2.93-1.18-1.54-.19-2.58-0.54-2.58-1.62a2.18,2.18,0,0,1,.07-0.51c0.31-1.32,1.58-2,3.82-2a6.55,6.55,0,0,1,3.14.7l-0.44.84a5.26,5.26,0,0,0-2.89-.66c-1.48,0-2.41.37-2.65,1.21a0.9,0.9,0,0,0-.06.29c0,0.73,1,.85,2.59,1s2.87,0.51,2.87,1.76a2.59,2.59,0,0,1,0,.49c-0.37,1.82-2.07,2.23-3.8,2.23A6.83,6.83,0,0,1,500.21,761.12Z" transform="translate(-399.82 -738.9)"/><path class="cls-1" d="M525.49,756" transform="translate(-399.82 -738.9)"/><polyline class="cls-1" points="126.33 12.24 145.18 12.24 137.01 0.13 119.65 0.13 126.33 12.24"/><polyline class="cls-1" points="126.31 12.91 114.14 23.32 132.99 23.32 133.01 23.32 145.18 12.91 126.33 12.91"/><polyline class="cls-1" points="125.66 12.57 118.98 0.28 113.47 22.99 125.64 12.57"/><path class="cls-1" d="M546.44,740.77a2,2,0,0,1-.06.49l0,0.26a2.71,2.71,0,0,1-2.72,2.2,1.81,1.81,0,0,1-1.92-1.86,2.22,2.22,0,0,1,0-.47l0-.26a2.74,2.74,0,0,1,2.71-2.22A1.82,1.82,0,0,1,546.44,740.77Zm-0.31,0a1.51,1.51,0,0,0-1.65-1.57,2.4,2.4,0,0,0-2.39,2l0,0.19a2.39,2.39,0,0,0,0,.48,1.5,1.5,0,0,0,1.65,1.55,2.36,2.36,0,0,0,2.38-2l0-.19A2.43,2.43,0,0,0,546.13,740.77Zm-0.86-.18a1,1,0,0,1,0,.14l0,0.1a0.88,0.88,0,0,1-.75.68l0.43,1h-0.31l-0.41-1h-0.8l-0.21,1h-0.29l0.53-2.57h1.07A0.66,0.66,0,0,1,545.27,740.59Zm-0.29,0a0.41,0.41,0,0,0-.5-0.37h-0.81l-0.21,1h0.83a0.6,0.6,0,0,0,.67-0.45v-0.08A0.78,0.78,0,0,0,545,740.62Z" transform="translate(-399.82 -738.9)"/></svg>