<svg id="Layer_1" data-name="Layer 1" xmlns="http://www.w3.org/2000/svg" viewBox="0 0 85.11 67.31"><defs><style>.cls-1,.cls-2{fill:#fff;}.cls-2{stroke:#a4a9ad;stroke-width:1.92px;}</style></defs><title>twins</title><path class="cls-1" d="M244.7,871.77l1.42-.24,0.47,2.85a0.87,0.87,0,0,1-.72,1l-2.75.46a0.89,0.89,0,0,1-1.06-.73l-1.49-8.95a0.89,0.89,0,0,1,.72-1l2.79-.46a0.88,0.88,0,0,1,1,.74l0.38,2.26-1.42.24-0.33-2-1.69.28,1.39,8.39,1.69-.28Z" transform="translate(-240.56 -815.28)"/><path class="cls-1" d="M253.07,873.52a0.9,0.9,0,0,1-.76,1l-3.14.42a0.9,0.9,0,0,1-1-.76l-1.19-9a0.9,0.9,0,0,1,.76-1l3.14-.42a0.9,0.9,0,0,1,1,.76ZM250.49,865l-2,.27,1.11,8.43,2-.27Z" transform="translate(-240.56 -815.28)"/><path class="cls-1" d="M255.92,868.17l0.57,5.86-1.39.14-1.06-10.81,1.09-.11,2.32,5.52,0.2,0,1.24-5.86,1.05-.1L261,873.59l-1.39.13-0.58-5.9-0.88,5-0.47,0Z" transform="translate(-240.56 -815.28)"/><path class="cls-1" d="M264,867.47l0.37,5.87-1.39.09-0.69-10.84,1.1-.07,2.13,5.59h0.2l1.44-5.82,1.05-.07,0.69,10.84-1.39.09-0.38-5.92-1,5-0.47,0Z" transform="translate(-240.56 -815.28)"/><path class="cls-1" d="M271.93,862.07l0.33,9.67,1.89-.07L273.82,862l1.44,0,0.34,10a0.84,0.84,0,0,1-.85.93l-3,.1a0.83,0.83,0,0,1-.91-0.86l-0.34-10Z" transform="translate(-240.56 -815.28)"/><path class="cls-1" d="M278.86,867l0.05,5.74h-1.33l-0.1-10.86h0.75l2.65,5.92-0.05-5.94h1.33l0.1,10.86h-0.78Z" transform="translate(-240.56 -815.28)"/><path class="cls-1" d="M285.72,872.75h-1.44l0.11-10.86h1.44Z" transform="translate(-240.56 -815.28)"/><path class="cls-1" d="M289.8,872.83l-1.44,0,0.24-9.68-1.55,0,0-1.18,4.54,0.11,0,1.18-1.55,0Z" transform="translate(-240.56 -815.28)"/><path class="cls-1" d="M293.79,868.86L292.21,862l1.46,0.07,1,4.6,1.32-4.5,1.42,0.06-2.18,6.66L295,873l-1.44-.07Z" transform="translate(-240.56 -815.28)"/><path class="cls-1" d="M301.47,873.42l0.88-10.83,3.59,0.29-0.1,1.18-2.16-.18-0.29,3.53,2,0.17-0.1,1.2-2-.16-0.4,4.92Z" transform="translate(-240.56 -815.28)"/><path class="cls-1" d="M308.93,863.18l-1,9.63,1.88,0.2,1-9.63,1.43,0.15-1.06,9.91a0.85,0.85,0,0,1-1,.8l-3-.32a0.83,0.83,0,0,1-.78-1L307.5,863Z" transform="translate(-240.56 -815.28)"/><path class="cls-1" d="M315.12,869.07l-0.79,5.69-1.32-.18,1.5-10.76,0.74,0.1,1.75,6.24,0.82-5.89,1.32,0.18-1.5,10.76-0.77-.11Z" transform="translate(-240.56 -815.28)"/><path class="cls-1" d="M321.46,864.82l2.44,0.43a1.87,1.87,0,0,1,1.74,2.15l-1.25,7.19a1.81,1.81,0,0,1-2.29,1.38l-2.5-.44Zm-0.24,9.79,0.68,0.12A0.9,0.9,0,0,0,323,874l1.15-6.61a0.87,0.87,0,0,0-.77-1l-0.74-.13Z" transform="translate(-240.56 -815.28)"/><path class="cls-1" d="M244,879.37l0.48,2.86-0.73.12-0.48-2.86-0.87.15-0.12-.71,2.48-.42,0.12,0.71Z" transform="translate(-240.56 -815.28)"/><path class="cls-1" d="M247.86,881.71l-0.22-1.44-1.05.16,0.22,1.44-0.73.11-0.54-3.59,0.74-.11,0.21,1.43,1.05-.16-0.21-1.43,0.74-.11,0.54,3.59Z" transform="translate(-240.56 -815.28)"/><path class="cls-1" d="M249.54,881.47l-0.48-3.6,2.06-.28,0.1,0.72-1.32.18,0.09,0.66,1.22-.16,0.1,0.72-1.22.16,0.1,0.78,1.32-.18,0.1,0.72Z" transform="translate(-240.56 -815.28)"/><path class="cls-1" d="M255.63,880.72l-0.16-1.45-1.06.12,0.16,1.45-0.74.08-0.4-3.61,0.74-.08,0.16,1.43,1.06-.12-0.16-1.43L256,877l0.4,3.6Z" transform="translate(-240.56 -815.28)"/><path class="cls-1" d="M257.31,880.54L257,876.93l2.07-.2,0.07,0.72-1.33.13,0.06,0.66,1.22-.12,0.07,0.72-1.22.12,0.08,0.79,1.33-.13,0.07,0.72Z" transform="translate(-240.56 -815.28)"/><path class="cls-1" d="M263.06,880l-0.77.06-0.24-.69-1.1.09-0.12.72-0.77.06,0.71-3.7,1-.08Zm-2-1.23,0.76-.06-0.5-1.48Z" transform="translate(-240.56 -815.28)"/><path class="cls-1" d="M264.84,878.78l-0.44,0,0.08,1.13-0.74,0-0.24-3.62,1.37-.09a0.92,0.92,0,0,1,1.17,1l0,0.45a0.89,0.89,0,0,1-.42.94l0.88,1.19-0.88.06Zm0.45-1.43a0.32,0.32,0,0,0-.42-0.35l-0.59,0,0.07,1.07,0.59,0a0.33,0.33,0,0,0,.37-0.42Z" transform="translate(-240.56 -815.28)"/><path class="cls-1" d="M268.32,876.79l0.16,2.9-0.74,0-0.16-2.9-0.89,0,0-.72,2.51-.14,0,0.72Z" transform="translate(-240.56 -815.28)"/><path class="cls-1" d="M273.86,878.4a1.29,1.29,0,0,1-2.55.09L271.25,877a1.29,1.29,0,0,1,2.55-.09Zm-0.8-1.42a0.54,0.54,0,0,0-1.07,0L272,878.4a0.54,0.54,0,0,0,1.07,0Z" transform="translate(-240.56 -815.28)"/><path class="cls-1" d="M274.78,879.43l-0.09-3.63,2.09-.05,0,0.72-1.35,0,0,0.77,1.25,0,0,0.72-1.25,0,0,1.4Z" transform="translate(-240.56 -815.28)"/><path class="cls-1" d="M280.37,876.43l0,2.91h-0.74l0-2.91h-0.89v-0.73l2.52,0v0.73h-0.89Z" transform="translate(-240.56 -815.28)"/><path class="cls-1" d="M285.57,879.34h-0.95l-0.54-2.76-0.58,2.76h-0.95l-0.79-3.64h0.73l0.54,2.6,0.59-2.59h0.91l0.55,2.6,0.57-2.59h0.73Z" transform="translate(-240.56 -815.28)"/><path class="cls-1" d="M287.07,879.37l0.07-3.63h0.74l-0.07,3.63h-0.74Z" transform="translate(-240.56 -815.28)"/><path class="cls-1" d="M289.58,877l-0.07,2.39-0.71,0,0.11-3.63,0.91,0,1,2.53,0.07-2.5,0.71,0-0.11,3.63-0.92,0Z" transform="translate(-240.56 -815.28)"/><path class="cls-1" d="M293.41,879.61a2.51,2.51,0,0,1-1.05-.28l0.15-.63a2.89,2.89,0,0,0,.94.21c0.38,0,.46-0.06.47-0.37s0-.37-0.53-0.52a0.91,0.91,0,0,1-.87-1.19c0-.72.28-1,1.18-1a4.39,4.39,0,0,1,1,.16l-0.1.68a4.58,4.58,0,0,0-.91-0.14c-0.33,0-.41,0-0.42.31s0,0.35.51,0.51c0.88,0.27.92,0.46,0.89,1.18S294.4,879.65,293.41,879.61Z" transform="translate(-240.56 -815.28)"/><path class="cls-1" d="M298.36,876.9l-0.17,2.9-0.74,0,0.17-2.9-0.89-.05,0-.72,2.51,0.15,0,0.72Z" transform="translate(-240.56 -815.28)"/><path class="cls-1" d="M299.76,879.9l0.26-3.62,2.07,0.15-0.05.72-1.33-.1,0,0.66,1.23,0.09-0.05.72-1.23-.09-0.06.79,1.33,0.1-0.05.72Z" transform="translate(-240.56 -815.28)"/><path class="cls-1" d="M304,879.09l-0.43,0-0.1,1.12-0.74-.06L303,876.5l1.37,0.12a0.92,0.92,0,0,1,1,1.12l0,0.44a0.89,0.89,0,0,1-.56.87l0.69,1.31-0.88-.07Zm0.67-1.34a0.32,0.32,0,0,0-.36-0.41l-0.59-.05-0.09,1.06,0.59,0.05a0.33,0.33,0,0,0,.43-0.36Z" transform="translate(-240.56 -815.28)"/><path class="cls-1" d="M307.48,879.42l-0.43,0-0.11,1.12-0.74-.07,0.36-3.61,1.36,0.14a0.92,0.92,0,0,1,1,1.13l0,0.44a0.89,0.89,0,0,1-.57.86L309,880.7l-0.88-.09Zm0.69-1.33a0.32,0.32,0,0,0-.36-0.42l-0.59-.06-0.11,1.06,0.59,0.06a0.33,0.33,0,0,0,.43-0.36Z" transform="translate(-240.56 -815.28)"/><path class="cls-1" d="M309.71,880.79l0.41-3.6,0.74,0.08-0.41,3.6Z" transform="translate(-240.56 -815.28)"/><path class="cls-1" d="M313.15,878.27l-0.36,2.88-0.74-.09,0.36-2.88-0.88-.11,0.09-.72,2.5,0.31-0.09.72Z" transform="translate(-240.56 -815.28)"/><path class="cls-1" d="M316.9,880.64a1.29,1.29,0,0,1-2.53-.35l0.21-1.5a1.29,1.29,0,0,1,2.53.35Zm-0.54-1.53a0.54,0.54,0,0,0-1.06-.15l-0.19,1.36a0.54,0.54,0,0,0,1.06.15Z" transform="translate(-240.56 -815.28)"/><path class="cls-1" d="M319,880.89l-0.43-.07-0.18,1.11-0.73-.12,0.57-3.58,1.36,0.21a0.92,0.92,0,0,1,.92,1.19l-0.07.44a0.89,0.89,0,0,1-.62.82l0.59,1.35-0.87-.14Zm0.76-1.29a0.32,0.32,0,0,0-.33-0.44l-0.58-.09-0.17,1.05,0.58,0.09a0.33,0.33,0,0,0,.45-0.33Z" transform="translate(-240.56 -815.28)"/><path class="cls-1" d="M322.49,881.56l-0.18,1-0.73-.13,0.18-1-0.56-2.72,0.77,0.13,0.32,1.76,0.9-1.55,0.77,0.13Z" transform="translate(-240.56 -815.28)"/><path class="cls-1" d="M292.72,839.75l0.34,0.08v0.53a1.87,1.87,0,0,0,.93.48v-16.1a1.81,1.81,0,0,0-1.41-1.93v15.81A3.86,3.86,0,0,0,292.72,839.75Z" transform="translate(-240.56 -815.28)"/><path class="cls-1" d="M283.59,824.15l-0.72.17v15c0,1.38.26,1.83,1.32,2.11a4.44,4.44,0,0,1-.1-1.08V824.58a5,5,0,0,0-.51-0.2v-0.23Z" transform="translate(-240.56 -815.28)"/><path class="cls-1" d="M267.24,847.84a6.09,6.09,0,0,1-4.42-.34,4.47,4.47,0,0,0,.61.55,6,6,0,0,0,5,.73c5.58-1.65,11.7-3.27,17.35-4.54v-1.67a2.68,2.68,0,0,1-1.22-.47v1.1C278.94,844.51,272.81,846.16,267.24,847.84Z" transform="translate(-240.56 -815.28)"/><path class="cls-1" d="M275.24,840.9a1.71,1.71,0,0,0,.72.3,4.2,4.2,0,0,1-.27-1.63V826.69a4.72,4.72,0,0,0-.51-0.21v-0.27l-0.72.19v12.18A2.81,2.81,0,0,0,275.24,840.9Z" transform="translate(-240.56 -815.28)"/><path class="cls-1" d="M266.8,843.21a1.76,1.76,0,0,0,.75.31,4,4,0,0,1-.28-1.62V829a5.17,5.17,0,0,0-.51-0.18v-0.28l-0.72.22V841A2.72,2.72,0,0,0,266.8,843.21Z" transform="translate(-240.56 -815.28)"/><path class="cls-1" d="M294,840.85a1.87,1.87,0,0,1-.93-0.48v1.06l-2.06.43a4.56,4.56,0,0,1-3.27-.45,4,4,0,0,0,.72.72,4.43,4.43,0,0,0,3.78.81l2.06-.41v-1.3l-0.29.05v-0.41Z" transform="translate(-240.56 -815.28)"/><path class="cls-1" d="M321.71,828.77a5.43,5.43,0,0,1,1.31,3.81c0,2.42-1.79,5.2-4.54,5.42-1.94.15-4.5,0.39-6.87,0.64V840c2.41-.25,5.21-0.47,7.41-0.67a5.75,5.75,0,0,0,5.06-5.44C324.08,832.09,323.8,830.69,321.71,828.77Z" transform="translate(-240.56 -815.28)"/><path class="cls-1" d="M321.77,825.78a6.73,6.73,0,0,1-2.91-1.1A5.94,5.94,0,0,0,323,827v-8.45l-1.23.07C321.77,820.71,321.77,824.51,321.77,825.78Z" transform="translate(-240.56 -815.28)"/><path class="cls-1" d="M316,823c0,0.55.23,1.29,1.57,2.27a2,2,0,0,1-.34-1.06,2.49,2.49,0,0,1,.16-1.15,5.76,5.76,0,0,1-.67-1.72C315.88,821.65,316,823,316,823Z" transform="translate(-240.56 -815.28)"/><path class="cls-1" d="M316.09,834.36a5.27,5.27,0,0,0-1.62-1.85,5.61,5.61,0,0,1,.95,2.1A2.73,2.73,0,0,0,316.09,834.36Z" transform="translate(-240.56 -815.28)"/><path class="cls-1" d="M258.33,829.89l0.3-.1v-1.49c4.14-.19,15.53-2,15.66-10.84l-0.95-.32c-0.31,8.53-11.89,9.83-15.93,10v20.44a1.57,1.57,0,0,0,1.33,1.38,1.17,1.17,0,0,1-.11-0.5V831.63l-0.3-.09v-1.65Z" transform="translate(-240.56 -815.28)"/><path class="cls-1" d="M251,853.7v1.39c2.24-1.05,6.92-2.8,9.44-3.7V850a3,3,0,0,1-1.22-.45v1C257.09,851.26,253.44,852.64,251,853.7Z" transform="translate(-240.56 -815.28)"/><path class="cls-1" d="M246,830.83h0a2,2,0,0,0,1.55,1.89,1.79,1.79,0,0,1-.33-1.06h0c0-1.35,1.68-2.09,4.18-2.46v-1.28C248.65,828.33,246,829.27,246,830.83Z" transform="translate(-240.56 -815.28)"/><path class="cls-1" d="M245.87,834.3a4.43,4.43,0,0,1-1.66-.32,4,4,0,0,0,2.89,1.14,5.68,5.68,0,0,0,1.76-.33v-1.21a2.26,2.26,0,0,1-1.22-.71V834A5.72,5.72,0,0,1,245.87,834.3Z" transform="translate(-240.56 -815.28)"/><path class="cls-1" d="M288,820.26a2.94,2.94,0,0,1-1.06-.2,2.94,2.94,0,0,0,5.06-2,3,3,0,0,0-1.86-2.75A2.95,2.95,0,0,1,288,820.26Z" transform="translate(-240.56 -815.28)"/><path class="cls-1" d="M310.38,837.79a2,2,0,0,1-.67-0.58v1.65c-1.54.15-4.22,0.53-6.24,0.82V841c2-.29,5.58-0.79,7.46-1v-1.32l-0.55.06v-1Z" transform="translate(-240.56 -815.28)"/><path class="cls-1" d="M308.24,835a1.63,1.63,0,0,0,1.16,1.78l0.12,0.06a2.38,2.38,0,0,1-.05-0.67v-9.86a5.84,5.84,0,0,0-1.87-4.63,5.43,5.43,0,0,0-.44-0.33,6.37,6.37,0,0,1,1.08,3.79V835Z" transform="translate(-240.56 -815.28)"/><path class="cls-1" d="M301.33,823.77a2.22,2.22,0,0,0-1.34-.42c0,1.84,0,16.87,0,16.87l-4.77.83v1.3l6-1s0-15,0-16.87a2.77,2.77,0,0,1,.7.11A2,2,0,0,0,301.33,823.77Z" transform="translate(-240.56 -815.28)"/><path class="cls-1" d="M281.71,839.35V824.48q-2.84.67-5.48,1.36a2.55,2.55,0,0,1,1.8,2.84v13.54c-0.05,0-4.72,1.51-4.72-3.63v-12c-1.93.52-3.76,1-5.46,1.53a2.47,2.47,0,0,1,1.79,2.78v13.61c-0.05,0-4.75,1.48-4.75-3.57V829c-2.07.63-3.9,1.21-5.47,1.72a2.38,2.38,0,0,1,1.79,2.72v8.65a4.88,4.88,0,0,0,1.68,4.08,4.72,4.72,0,0,0,4,.53c5-1.53,10.55-3,16.55-4.43C281.89,842,281.71,840.59,281.71,839.35Z" transform="translate(-240.56 -815.28)"/><path class="cls-1" d="M290.8,840.71l1.08-.21c-1.5-.33-1.68-1.71-1.68-2.94v-15c-1.86.38-3.68,0.77-5.45,1.17a2.62,2.62,0,0,1,1.77,2.87v9.42c0,2,.38,3.3,1.41,4.08A3.3,3.3,0,0,0,290.8,840.71Z" transform="translate(-240.56 -815.28)"/><path class="cls-1" d="M321.85,832.25c-0.13-1.51-.26-2.8-4.65-5.8-1.86-1.27-2.29-2.4-2.33-3.36-0.11-2.27,1.12-3,2.85-3a4.48,4.48,0,0,0,2.89,4.22c0-.34,0-5.18,0-5.75-2.25.13-3.88,0.25-6.09,0.44-2.4.24-3.55,2.61-3.45,4.56a5.86,5.86,0,0,0,2.73,4.79c3.63,2.43,4.21,3.47,4.26,4.43,0.1,2.28-1.9,3.14-3.62,3.13a4.39,4.39,0,0,0-2.89-4.18c0,0.34,0,5.28,0,5.77,2.44-.27,4.45-0.47,6.93-0.65C320.59,836.61,322,834.32,321.85,832.25Z" transform="translate(-240.56 -815.28)"/><path class="cls-1" d="M256.26,847.61V826.06c2.56,0,15-.64,15.9-8.25-0.73,2.58-5.08,4.09-11.31,4.11-4.33,0-18,.13-18,7.95a3,3,0,0,0,3,3.28,3,3,0,0,1-1.08-2.3h0c0-3.17,5.53-4,7.72-4.22,0,0,0,22.72,0,22.67s-0.2,2.28-1.53,3.16c2-.86,4.33-1.78,6.95-2.72A1.94,1.94,0,0,1,256.26,847.61Z" transform="translate(-240.56 -815.28)"/><circle class="cls-1" cx="47.41" cy="2.03" r="1.79"/><path class="cls-1" d="M308.55,842.41c-17.36,1.82-39.27,8.09-44,9.87,0.87-.11,5.31.41,10.43,3.85,6.42-6.69,21.39-11.24,33.54-12.8v-0.92Z" transform="translate(-240.56 -815.28)"/><path class="cls-1" d="M307.08,834.78s0-8.25,0-9.67a4.17,4.17,0,0,0-5-4.62l-3.28.52q-2.78.47-5.46,1a2.74,2.74,0,0,1,1.79,3v14.94l3.68-.64V822.3c1-.24,4.58-0.61,4.58,4.28v11.94q2.71-.4,5.47-0.74A2.82,2.82,0,0,1,307.08,834.78Z" transform="translate(-240.56 -815.28)"/><path class="cls-2" d="M328.6,888.6" transform="translate(-240.56 -815.28)"/></svg>