<svg id="Layer_1" data-name="Layer 1" xmlns="http://www.w3.org/2000/svg" viewBox="0 0 145.9 49.2"><defs><style>.cls-1{fill:#fff;}</style></defs><title>west_central</title><path class="cls-1" d="M722.17,756.24H721.5v-0.42h1.86v0.42h-0.7v2.09h-0.49v-2.09Z" transform="translate(-580.72 -723.75)"/><path class="cls-1" d="M724.17,756.43h0v1.9h-0.43v-2.51h0.66l0.78,1.86,0.8-1.86h0.65v2.51h-0.43v-1.9h0l-0.8,1.9H725Z" transform="translate(-580.72 -723.75)"/><polygon class="cls-1" points="71.15 0 0 10.69 1.98 11.77 92.69 11.77 71.15 0"/><polygon class="cls-1" points="141.59 38.51 139.66 37.45 48.95 37.45 70.44 49.2 141.59 38.51"/><path class="cls-1" d="M720.16,758.36H582.27V738.21H720.16v20.15Zm-126.07-5.14h2l1.29-5.26,1.34,5.26h2l1.68-9.27H600.5l-0.89,5-1.25-5h-1.87l-1.25,5-0.86-5h-1.89Zm12.07,0h6.93v-1.87H608V749.2h2.56v-1.87H608v-1.55h4.87v-1.84h-6.75v9.27Zm9.87-1.57,0.11,0.11a7.87,7.87,0,0,0,1,.89,4.74,4.74,0,0,0,2.73.75c2.19,0,3.66-1.14,3.66-2.86a2.67,2.67,0,0,0-1.1-2.16,4.5,4.5,0,0,0-1-.47l-1.88-.59-0.22-.07a0.82,0.82,0,0,1-.81-0.81c0-.56.42-0.82,1.32-0.82a3.36,3.36,0,0,1,2.17.78l1.32-1.34a5.09,5.09,0,0,0-3.47-1.28c-1.95,0-3.23,1-3.23,2.66a2.57,2.57,0,0,0,2,2.56l0.13,0,1.94,0.59L621,749.7a0.9,0.9,0,0,1,.77.86c0,0.6-.74,1-1.84,1a3.17,3.17,0,0,1-2.45-1.13Zm12.69,1.57h1.88V745.8h2.52v-1.85H626.2v1.85h2.53v7.42Zm17.79-2.74a1.92,1.92,0,0,1-1.75,1c-1.37,0-2.28-1.17-2.28-2.94s0.93-3,2.23-3a2.06,2.06,0,0,1,1.81,1.06l1.63-.95a3.9,3.9,0,0,0-3.4-2c-2.38,0-4.16,2-4.16,4.79s1.76,4.89,4.12,4.89a4,4,0,0,0,3.44-2Zm4.92,2.74h6.93v-1.87h-5.05V749.2h2.56v-1.87h-2.56v-1.55h4.87v-1.84h-6.75v9.27Zm10,0h1.88v-5.76l4,5.76h1.74v-9.27H667.2v5.76l-3.94-5.76h-1.77v9.27Zm12.93,0h1.88V745.8h2.52v-1.85h-6.93v1.85h2.53v7.42Zm7.23-9.27v9.27h1.88v-3.31h2.17l1.45,3.31h2l-1.57-3.68a3,3,0,0,0,1.59-2.63,3,3,0,0,0-2.9-3h-4.65Zm1.88,4.09v-2.23h2.6a1.09,1.09,0,0,1,1.2,1.09,1.13,1.13,0,0,1-1.16,1.14h-2.65Zm7.9,5.18h2l0.89-2.1H698l0.88,2.1h2l-3.82-9.27h-1.77Zm5.79-4h-2.13l1.06-2.54Zm6.27,4h6.93v-1.87h-5.05v-7.41h-1.88v9.27Z" transform="translate(-580.72 -723.75)"/></svg>