<svg id="Layer_1" data-name="Layer 1" xmlns="http://www.w3.org/2000/svg" viewBox="0 0 144.41 24.94"><defs><style>.cls-1{fill:#fff;}</style></defs><title>wolverine</title><path class="cls-1" d="M169.38,837.68a6.73,6.73,0,0,1,4.7,1.88c1.93,1.74,2.07,3.13,3.74,4,1.32,0.65,3.44,1.38,4.51,2.64a5.79,5.79,0,0,1,.83,6.41,10.46,10.46,0,0,1-2.53,3.83c-0.34.31-.47,0.35-0.65,0.18s-0.14-.31,0-0.54a4.8,4.8,0,0,0,1-3.22c-0.24-2.12-.93-2.23-0.72-2.89s0.68-.43.65-1.09a2.17,2.17,0,0,0-1.83-2.06,11.45,11.45,0,0,1-4.47-2.21c-2.48-1.8-4.42-3.31-7.42-2.35s-4.25,2.7-4.7,3.84a3,3,0,0,0-.16,2.46,1.21,1.21,0,0,1-.15,1.52c-0.78.66-1.65,1.32-1.74,3.89a7.5,7.5,0,0,0,.2,1.81c0.07,0.3.15,0.49,0,.58s-0.31.13-.69-0.41-2-3.2-1.7-5.71c0.29-2.26,1.08-3,2.38-4.33a10.7,10.7,0,0,0,2.66-3.85,6.6,6.6,0,0,1,6.07-4.32" transform="translate(-39.35 -837.68)"/><path class="cls-1" d="M166,849.45a2.54,2.54,0,0,1,1.52,1.56,1.73,1.73,0,0,1-.22,1.66,4.54,4.54,0,0,0-1.11,1.8,8.78,8.78,0,0,0-.29,2.67,8.93,8.93,0,0,0,.4,3.22c0.17,0.44.12,0.53,0,.6s-0.26.12-.61-0.28a11.7,11.7,0,0,1-2.28-4.13,11.4,11.4,0,0,1-.32-3.79,3.44,3.44,0,0,1,.92-2.65,2.14,2.14,0,0,1,2-.66" transform="translate(-39.35 -837.68)"/><path class="cls-1" d="M171.34,849.81a1.59,1.59,0,0,1,1.48.88,7,7,0,0,1,.8,3.35,14.5,14.5,0,0,1-.94,4.58,11.82,11.82,0,0,1-1.26,2.3,9.31,9.31,0,0,1-1.35,1.48c-0.24.2-.47,0.31-0.61,0.11a0.47,0.47,0,0,1,.14-0.55,5.67,5.67,0,0,0,.77-1.94,7,7,0,0,0,.05-3.72,18,18,0,0,0-.93-2.66,2.66,2.66,0,0,1,1.86-3.84" transform="translate(-39.35 -837.68)"/><path class="cls-1" d="M176.45,849.3a1.43,1.43,0,0,1,1.54.56,6.82,6.82,0,0,1,.82,2.88,10.28,10.28,0,0,1-.51,3.57,6.82,6.82,0,0,1-1.52,2.68,5.47,5.47,0,0,1-1,.88,0.34,0.34,0,0,1-.5,0c-0.12-.15-0.11-0.3.14-0.56a2.87,2.87,0,0,0,.84-1.36,7.86,7.86,0,0,0,0-2.95,6.8,6.8,0,0,0-1-2.33,2.27,2.27,0,0,1-.31-1.76,2,2,0,0,1,1.48-1.58" transform="translate(-39.35 -837.68)"/><path class="cls-1" d="M155.86,840.52v-0.61h0.4c0.21,0,.42,0,0.42.29s-0.22.32-.47,0.32h-0.35Zm0.63,0.24a0.51,0.51,0,0,0,.51-0.54,0.55,0.55,0,0,0-.69-0.56h-0.74v2h0.29v-0.85h0.34l0.51,0.85H157Zm-0.27,1.31a1.43,1.43,0,1,1,1.37-1.43,1.37,1.37,0,0,1-1.37,1.43m0-3.14a1.71,1.71,0,1,0,1.71,1.71,1.7,1.7,0,0,0-1.71-1.71m-40.7,7.56a1.9,1.9,0,0,1-1.6,1.76h-1.26v-5.58H114a1.6,1.6,0,0,1,1.6,1.62,18.36,18.36,0,0,1,0,2.2m4.62,13.26v-5.54c-0.08-3.55-1.68-3.9-2.33-4.25,0.23-.27,2.33-0.66,2.36-4.13V844c-0.11-5.26-4.53-5-5.49-5h-6.83v22.81h4.81V852H114c1.05,0,1.39,1,1.37,2.51v5.15a4.9,4.9,0,0,0,.36,2.09h4.75a4.17,4.17,0,0,1-.38-2m-52.56-2.87a1.43,1.43,0,1,1-2.86,0V843.7a1.43,1.43,0,1,1,2.86,0v13.18Zm-1.36-18.3c-3.42,0-6.27,2.4-6.27,5.65v12.21c0,3.25,2.7,5.65,6.12,5.65s6.27-2.43,6.27-5.68V844.23c0-3.25-2.7-5.65-6.12-5.65M96,838.93v22.81h10.91v-4.25h-6V852h4.81V848h-4.73v-4.91h5.27v-4.13H96Zm31.75,0v22.81h4.81V850.16l3.05,11.58h5.49V838.93h-4.81v11.7l-3.2-11.7h-5.34Zm14.77,0v22.81H153.4v-4.25h-6V852h4.8V848h-4.73v-4.91h5.26v-4.13H142.49Zm-60.53,0,3.47,22.81h6.1L95,838.93H89.93l-1.37,15.21L87,838.93H82Zm-8.33,0v22.81H84v-4.17H78.48V838.93H73.63Zm-34.28,0,3.4,22.81h5.88l1-11.66,1.14,11.66h6l3.17-22.81H55l-1.53,15.6L52,838.93H47.32l-1.45,15.6-1.45-15.6H39.35Zm82.07,22.81h4.88V838.93h-4.88v22.81Z" transform="translate(-39.35 -837.68)"/></svg>